<svg width="18" height="18" fill="none" xmlns="http://www.w3.org/2000/svg"><g clip-path="url(#a)" fill="#192144"><path d="M12.96 2.033a3.274 3.274 0 0 1 2.29.936c.606.597.948 1.407.95 2.252v7.791a3.169 3.169 0 0 1-.95 2.252 3.275 3.275 0 0 1-2.29.936H5.04a3.274 3.274 0 0 1-2.284-.938 3.169 3.169 0 0 1-.949-2.25V5.221a3.169 3.169 0 0 1 .949-2.25 3.274 3.274 0 0 1 2.284-.938h7.92Zm0-1.062H5.04a4.356 4.356 0 0 0-3.055 1.244A4.215 4.215 0 0 0 .72 5.221v7.791c0 1.127.455 2.208 1.265 3.005a4.356 4.356 0 0 0 3.055 1.245h7.92a4.356 4.356 0 0 0 3.055-1.245 4.215 4.215 0 0 0 1.265-3.005V5.221a4.215 4.215 0 0 0-1.265-3.006A4.356 4.356 0 0 0 12.96.971Z"/><path d="M9.007 5.985c.63 0 1.248.184 1.772.529.525.344.933.835 1.175 1.408a3.09 3.09 0 0 1 .181 1.813 3.123 3.123 0 0 1-.873 1.607 3.206 3.206 0 0 1-1.633.858 3.238 3.238 0 0 1-1.843-.178 3.18 3.18 0 0 1-1.431-1.156 3.102 3.102 0 0 1 .394-3.964 3.187 3.187 0 0 1 1.036-.68 3.228 3.228 0 0 1 1.222-.237Zm0-1.063a4.32 4.32 0 0 0-2.374.705A4.216 4.216 0 0 0 5.057 7.51a4.137 4.137 0 0 0-.246 2.428 4.18 4.18 0 0 0 1.167 2.152 4.292 4.292 0 0 0 2.186 1.152c.829.162 1.687.08 2.468-.238a4.256 4.256 0 0 0 1.917-1.547 4.152 4.152 0 0 0-.525-5.304c-.396-.39-.867-.7-1.384-.91a4.323 4.323 0 0 0-1.633-.32ZM13.428 5.73a.957.957 0 0 0 .965-.948.957.957 0 0 0-.965-.95.957.957 0 0 0-.965.95c0 .524.432.949.965.949Z"/></g><defs><clipPath id="a"><path fill="#fff" transform="translate(0 .262)" d="M0 0h18v17.708H0z"/></clipPath></defs></svg>