<svg width="96" height="15" fill="none" xmlns="http://www.w3.org/2000/svg"><path d="M95 6.2c.6-.5 1-1.2 1-2.1 0-1.3-.5-2.3-1.6-3A6 6 0 0 0 90.8 0c-1.3 0-2.5.4-3.7 1.2a3.7 3.7 0 0 0-1.6 3.1c0 .5.1 1 .4 1.2.3.3.8.5 1.3.5.6 0 1-.2 1.3-.5.3-.3.5-.7.5-1.2 0-.3 0-.7.3-1.1.3-.4.8-.6 1.5-.6.6 0 1 .2 1.3.5.3.3.4.5.4.8 0 .2 0 .5-.2.7a2 2 0 0 1-.5.4 10.5 10.5 0 0 1-1.4 1c-.7.5-1.1 1.3-1.1 2.2 0 .4.2.8.5 1.1.3.3.7.5 1.3.5.6 0 1-.2 1.3-.5.3-.3.5-.7.5-1.1l.1-.6.4-.4a25.2 25.2 0 0 1 1-.7l.5-.3ZM76.3 10.2l3.9-4.7c.4-.6.9-1 1.6-1 .7 0 1.2 0 1.8.5.5.4.7 1 .7 1.6v6.9c0 .4-.2.8-.5 1-.4.3-.8.5-1.2.5-.5 0-.9-.2-1.2-.4-.4-.3-.5-.7-.5-1.1V9.2L77 14a2.3 2.3 0 0 1-3.4.5c-.5-.4-.7-1-.7-1.7V6c0-.4.2-.8.5-1 .3-.4.7-.5 1.2-.5s.9.1 1.2.4c.3.3.5.7.5 1.1v4.2Z" fill="#192144"/><path fill-rule="evenodd" clip-rule="evenodd" d="M59 13.4V6c0-.5-.2-.8-.6-1.1a1.7 1.7 0 0 0-2.4 0c-.3.3-.5.6-.5 1v-.1c-.2-.4-.5-.7-1-1-.5-.3-1.1-.5-1.8-.5-1.3 0-2.4.5-3.5 1.5a5 5 0 0 0-1.6 3.9c0 1.6.5 3 1.5 3.9 1 1 2.3 1.4 3.6 1.4a4 4 0 0 0 1.8-.4c.5-.2.8-.5 1-.9.1.4.3.7.6 1 .4.2.7.3 1.1.3.5 0 .9-.2 1.2-.5.4-.3.6-.7.6-1.1ZM53.5 12c1.2 0 2.1-1 2.1-2.3 0-1.2-1-2.3-2.1-2.3-1.2 0-2.1 1-2.1 2.3 0 1.3 1 2.3 2.1 2.3Z" fill="#192144"/><path d="M43 8.2V6.1c0-.4.3-.8.6-1.1.4-.3.8-.5 1.2-.5.5 0 1 .2 1.3.5.3.3.5.7.5 1v7.4c0 .5-.2.8-.5 1.1-.4.3-.8.5-1.3.5-.4 0-.9-.2-1.2-.5-.3-.3-.5-.6-.5-1v-2.2h-3.8v2.1c0 .5-.2.8-.6 1.1-.3.3-.7.5-1.2.5s-1-.2-1.3-.5c-.3-.3-.5-.6-.5-1V6c0-.4.2-.8.6-1.1.3-.3.7-.5 1.2-.5s.9.2 1.2.5c.4.3.6.7.6 1v2.2H43ZM34 4.5c.3 0 .6.1.9.4.2.3.3.9.3 1.2 0 .4-.1.8-.3 1-.3.3-.6.4-1 .4H31v6c0 1.1-1 1.5-2 1.5s-1.8-.5-1.8-1.5v-9H34ZM12.9 0v13.3c0 .5-.3.8-.6 1.2-.3.3-.8.4-1.3.4-.4 0-1.1-.1-1.4-.4-.3-.4-.5-.7-.5-1.2V3H3.8v10.3c0 .5-.2.8-.5 1.2-.3.3-1 .4-1.4.4-.5 0-1-.1-1.4-.4-.3-.4-.5-.7-.5-1.2V0h12.9ZM24.6 13.4a6 6 0 0 1-4.3 1.5 6 6 0 0 1-4.3-1.5 5 5 0 0 1-1.6-3.9A5 5 0 0 1 16 5.7a6 6 0 0 1 4.3-1.5 6 6 0 0 1 4.3 1.5 5 5 0 0 1 1.7 3.8 5 5 0 0 1-1.7 3.9Zm-2.8-5.5c-.3-.3-.6-.5-1-.5h-1.3c-.4.2-.7.5-1 .9a2 2 0 0 0-.3 1.2c0 .7.2 1.2.6 1.6.4.4.9.6 1.5.6s1.2-.2 1.6-.6c.4-.4.6-1 .6-1.6 0-.6-.3-1.1-.7-1.6ZM64 4.5h7.4v8.9c0 .4-.1.8-.5 1.1-.4.3-.7.5-1.2.5s-.8 0-1.2-.3c-.3-.3-.6-.9-.6-1.3v-6h-2.5c0 4.3 0 5.2-1.6 6.8-.5.5-1.3.8-2.2.8-.5 0-.9-.1-1.2-.4-.3-.4-.6-.9-.6-1.4 0-1 .2-1.4.7-2 1.6 0 1.5-.4 1.4-3.3V6l.1-1.6h2ZM93.2 12.7c0 1.3-1 2.3-2.4 2.3-1.3 0-2.3-1-2.3-2.3 0-1.2 1-2.2 2.3-2.2 1.3 0 2.4 1 2.4 2.2Z" fill="#192144"/></svg>