<svg width="188" height="50" fill="none" xmlns="http://www.w3.org/2000/svg"><path d="M94 12.6 53.9 50 39.3 2.1 94 12.6Z" fill="#FF8D30"/><ellipse cx="94.7" cy="33.9" rx="4.4" ry="4.3" fill="#88BFEB"/><ellipse cx="111.9" cy="21.5" rx="15.2" ry="14.8" fill="#EB9898"/><path fill="#72A73E" d="m103 23.3 52.7-19 10 26.2-52.8 19z"/><ellipse cx="110" cy="40.6" rx="2.6" ry="2.5" fill="#FFBD30"/><ellipse rx="22.8" ry="9" transform="matrix(.97092 .2394 -.25022 .96819 159 33.4)" fill="#8EC7F5"/><ellipse cx="176.4" cy="12.2" rx="2.6" ry="2.5" fill="#FFBD30"/><ellipse cx="184.5" cy="9.2" rx="2.6" ry="2.5" fill="#FFBD30"/><path d="M4 42h6v3c0 .6-.4 1-1 1H5a1 1 0 0 1-1-1v-3ZM41.2 42h6v3c0 .6-.4 1-1 1h-4a1 1 0 0 1-1-1v-3Z" fill="#1D2959"/><path fill-rule="evenodd" clip-rule="evenodd" d="M28.8 3.5a10 10 0 0 0-3.4-.8c-.8 0-2 .4-3.1.8l-1.8.9c-.7.3-1.6 0-2-.6-.4-.7-.1-1.5.6-1.9a18.2 18.2 0 0 1 2-1C22.4.5 24 0 25.5 0s3.2.4 4.5.9l2.2 1c.7.4 1 1.2.6 1.9s-1.3 1-2 .6a15.6 15.6 0 0 0-1.9-.9Z" fill="#8A4A38"/><path fill-rule="evenodd" clip-rule="evenodd" d="M19.3 1.7c-.7 0-1.2.5-1.2 1.2v.7c0 .5.4 1 1 1v3.6h1V4.5H20a1.4 1.4 0 0 0-.3-2.8h-.3ZM32 1.7c.6 0 1.1.5 1.1 1.2v.7c0 .5-.4 1-1 1v3.6h-1V4.5h.2a1.4 1.4 0 0 1 .3-2.8h.3Z" fill="#F6EF3E"/><path d="M0 16.8c0-5 4-9 9-9h33.3c5 0 9 4 9 9V42H0V16.8Z" fill="#8A4A38"/><ellipse cx="8.1" cy="33.2" rx="5" ry="4.9" fill="#EF9A9A"/><ellipse rx="4.8" ry="9.3" transform="matrix(.7051 -.7091 .72546 .68826 39.5 33.4)" fill="#93C6EB"/><path fill="#C2DEA3" d="M19.8 21.3 31 9.5l6.7 6.1-11.3 11.9z"/><rect width="8.3" height="6.2" rx="1" transform="matrix(.73793 .67488 -.69199 .7219 10.6 13.3)" fill="#C49A6C"/><path fill="#F57B20" d="M10 23.1h7.1v20H10z"/><path d="M10 6.5h7.1v17.3a3.5 3.5 0 0 1-7 0V6.5Z" fill="#F6A725"/><path fill="#F6EF3E" d="M9.1 21.5h9v2h-9z"/><path fill="#F57B20" d="M34.2 23.1h7.1v20h-7.1z"/><path d="M34.2 6.5h7v17.3a3.5 3.5 0 0 1-7 0V6.5Z" fill="#F6A725"/><path fill="#F6EF3E" d="M33.2 21.5h9v2h-9z"/></svg>