<svg width="156" height="42" fill="none" xmlns="http://www.w3.org/2000/svg"><path d="M78 10.6 44.7 42 32.6 1.8 78 10.6Z" fill="#FF8D30"/><circle cx="78.6" cy="28.5" fill="#88BFEB" r="3.6"/><ellipse cx="92.8" cy="18.1" rx="12.6" ry="12.4" fill="#EB9898"/><path fill="#72A73E" d="m85.4 19.6 43.9-16 8.3 22-43.9 16z"/><circle cx="91.3" cy="34.1" fill="#FFBD30" r="2.1"/><ellipse rx="18.9" ry="7.6" transform="matrix(.97025 .24212 -.24742 .9689 132 28)" fill="#8EC7F5"/><ellipse cx="146.4" cy="10.3" rx="2.2" ry="2.1" fill="#FFBD30"/><ellipse cx="153.1" cy="7.7" rx="2.2" ry="2.1" fill="#FFBD30"/><path d="M3.3 35.3h5v2.4c0 .5-.4 1-1 1h-3a1 1 0 0 1-1-1v-2.4ZM34.2 35.3h5v2.4c0 .5-.5 1-1 1h-3a1 1 0 0 1-1-1v-2.4Z" fill="#1D2959"/><path fill-rule="evenodd" clip-rule="evenodd" d="M24 3c-1-.4-2.1-.8-2.9-.7-.7 0-1.7.3-2.6.7l-1.5.7c-.6.3-1.3 0-1.6-.5-.3-.6-.1-1.3.4-1.6a15 15 0 0 1 1.8-.8c1-.4 2.3-.8 3.5-.8 1.2 0 2.7.3 3.7.7l1.9.9c.5.3.7 1 .4 1.6-.3.6-1 .8-1.6.5a13 13 0 0 0-1.6-.8Z" fill="#8A4A38"/><path fill-rule="evenodd" clip-rule="evenodd" d="M16 1.4a1 1 0 0 0-1 1V3c0 .5.4.8.8.8v3h.9v-3h-.2a1.2 1.2 0 0 0-.3-2.4H16ZM26.5 1.4c.5 0 1 .5 1 1V3c0 .5-.4.8-.8.8v3h-.9v-3h.2a1.2 1.2 0 0 1 .3-2.4h.2Z" fill="#F6EF3E"/><path d="M0 15.5c0-5 4-9 9-9h24.5c5 0 9 4 9 9v19.8H0V15.5Z" fill="#8A4A38"/><ellipse cx="6.7" cy="27.9" rx="4.2" ry="4.1" fill="#EF9A9A"/><ellipse rx="4" ry="7.7" transform="matrix(.70085 -.71331 .72133 .69259 32.8 28)" fill="#93C6EB"/><path fill="#C2DEA3" d="m16.4 18 9.4-10 5.6 5.1-9.4 10z"/><rect width="7" height="5.2" rx="1" transform="matrix(.7339 .67927 -.68766 .72603 8.8 11.1)" fill="#C49A6C"/><path fill="#F57B20" d="M8.3 19.4h5.9v16.8H8.3z"/><path d="M8.3 5.4h5.9V20a3 3 0 0 1-5.9 0V5.4Z" fill="#F6A725"/><path fill="#F6EF3E" d="M7.5 18H15v1.6H7.5z"/><path fill="#F57B20" d="M28.3 19.4h5.9v16.8h-5.9z"/><path d="M28.3 5.4h6V20a3 3 0 0 1-6 0V5.4Z" fill="#F6A725"/><path fill="#F6EF3E" d="M27.5 18H35v1.6h-7.5z"/></svg>