<svg width="16" height="10" viewBox="0 0 16 10" fill="none" xmlns="http://www.w3.org/2000/svg">
<path d="M0.404512 0.372805C0.306082 0.471079 0.227989 0.587825 0.174705 0.716355C0.121421 0.844886 0.0939941 0.982676 0.0939941 1.12183C0.0939941 1.26099 0.121421 1.39878 0.174705 1.52731C0.227989 1.65584 0.306082 1.77258 0.404512 1.87086L7.4311 8.9041C7.50932 8.98256 7.60224 9.04481 7.70453 9.08728C7.80682 9.12975 7.91648 9.15161 8.02722 9.15161C8.13796 9.15161 8.24761 9.12975 8.3499 9.08728C8.45219 9.04481 8.54511 8.98256 8.62334 8.9041L15.6499 1.87086C16.0642 1.45614 16.0642 0.78752 15.6499 0.372805C15.2356 -0.0419111 14.8005 0.30164 14.3862 0.716355L10.7029 4.42074L7.99992 7.0304L1.19994 0.363732C1.19994 0.363732 0.81038 -0.0419111 0.404512 0.372805Z" fill="black"/>
</svg>
