<svg width="25" height="24" fill="none" xmlns="http://www.w3.org/2000/svg"><path opacity=".1" d="M18.3 21a4.2 4.2 0 0 1-4-2.7 4.4 4.4 0 0 1 1-4.7 4.2 4.2 0 0 1 7.3 3c0 1.2-.5 2.3-1.3 3.1-.8.8-1.9 1.3-3 1.3Zm0-7.1a2.7 2.7 0 0 0-2.6 1.7 2.8 2.8 0 0 0 .6 3 2.8 2.8 0 0 0 4.8-2 2.8 2.8 0 0 0-2.8-2.8ZM6.1 21a4.2 4.2 0 0 1-4-2.7 4.4 4.4 0 0 1 1-4.7 4.2 4.2 0 0 1 7.3 3c0 1.2-.5 2.3-1.3 3.1-.8.8-1.9 1.3-3 1.3Zm0-7.1a2.7 2.7 0 0 0-2.6 1.7 2.8 2.8 0 0 0 .6 3 2.8 2.8 0 0 0 4.8-2A2.8 2.8 0 0 0 6 13.9ZM15.2 6a1.5 1.5 0 0 0 1.3-1l.1-.5a1.5 1.5 0 0 0-.9-1.4l-.5-.1a1.5 1.5 0 0 0-1.4 1 1.5 1.5 0 0 0 .8 1.9l.6.1Z" fill="#1D2E5B"/><path opacity=".1" d="M17.4 9h-2a.2.2 0 0 1-.2-.1l-1.5-2.7a1.4 1.4 0 0 0-1-.8 1.4 1.4 0 0 0-1.3.4L8.2 9.1c-.3.3-.4.7-.4 1 0 .9.6 1.2.8 1.3a146.3 146.3 0 0 1 2.9 1.8v3.3c0 .4.3.7.7.7a.7.7 0 0 0 .7-.4v-4.3a.8.8 0 0 0-.3-.6L11 10.6a.2.2 0 0 1 0-.1.2.2 0 0 1 0-.2l2-2a.2.2 0 0 1 .2-.1l1 2a.7.7 0 0 0 .7.3h2.6a.7.7 0 0 0 .5-.2.8.8 0 0 0-.5-1.3Z" fill="#1D2E5B"/></svg>