<svg width="18" height="21" fill="none" xmlns="http://www.w3.org/2000/svg"><g clip-path="url(#a)"><path opacity=".1" d="M4.3 14c0-.4-.1-.8-.4-1-.3-.3-.6-.4-1-.4s-.7.1-1 .4c-.3.2-.4.6-.4 1 0 .3.1.7.4 1 .3.2.6.3 1 .3s.7-.1 1-.4c.3-.2.4-.6.4-1Zm11.4 0c0-.4-.1-.8-.4-1-.3-.3-.6-.4-1-.4s-.8.1-1 .4c-.3.2-.4.6-.4 1 0 .3.1.7.4 1 .2.2.6.3 1 .3s.7-.1 1-.4c.3-.2.4-.6.4-1Zm-.5-4.3-.8-4.1c0-.2-.1-.3-.3-.4a.7.7 0 0 0-.4-.2H3.5c-.2 0-.3 0-.4.2-.2 0-.3.2-.3.4L2 9.7c0 .2 0 .4.2.6l.5.2h11.8c.2 0 .4 0 .5-.2.2-.2.2-.4.2-.6Zm-2.5-6.6s0-.2-.2-.3a.5.5 0 0 0-.4-.2h-7c-.2 0-.3 0-.4.2l-.2.3c0 .2 0 .3.2.4l.4.2h7c.2 0 .3 0 .4-.2l.2-.4ZM17 11v6.5h-1.4v1.3c0 .4-.1.8-.4 1-.3.3-.6.4-1 .4s-.8-.1-1-.4c-.3-.2-.4-.6-.4-1v-1.3H4.3v1.3c0 .4-.1.8-.4 1-.3.3-.6.4-1 .4s-.7-.1-1-.4c-.3-.2-.4-.6-.4-1v-1.3H.1v-6.5c0-.8 0-1.6.3-2.4l1.1-4.8c0-.6.4-1 1-1.5.7-.4 1.6-.7 2.6-1a17.3 17.3 0 0 1 7 0c1 .3 1.9.6 2.5 1 .7.4 1 1 1.1 1.5l1.2 4.8.2 2.4Z" fill="#1D2E5B"/></g><defs><clipPath id="a"><path fill="#fff" transform="translate(0 1)" d="M0 0h17v19.2H0z"/></clipPath></defs></svg>