<svg xmlns="http://www.w3.org/2000/svg" xmlns:xlink="http://www.w3.org/1999/xlink"><defs><clipPath id="a"><path fill="#fff" transform="translate(.08 .92)" d="M0 0h17.04v19.2H0z"/></clipPath><clipPath id="a"><path fill="#fff" transform="translate(0 .086)" d="M0 0h27v33.303H0z"/></clipPath><clipPath id="a"><path fill="#fff" transform="translate(0 .96)" d="M0 0h20.826v21.12H0z"/></clipPath></defs><symbol id="icon-arrow-bend"><g fill="none"><path fill-rule="evenodd" clip-rule="evenodd" d="M4 16h24a4 4 0 0 0 4-4V7a4 4 0 0 0-4-4H4v2h24a2 2 0 0 1 2 2v5a2 2 0 0 1-2 2H4v2Z" fill="#fff"/><path d="M0 4 9 .536v6.928L0 4Z" fill="#fff"/></g></symbol><symbol id="icon-arrow-calendar"><g fill="none"><path d="M11.812 1.4a1.063 1.063 0 0 0-.345-.26.958.958 0 0 0-.814 0c-.13.06-.246.149-.345.26l-7.06 7.972a.972.972 0 0 0-.183.31 1.063 1.063 0 0 0 0 .732.973.973 0 0 0 .183.31l7.06 7.972a.978.978 0 0 0 1.504 0c.416-.47.071-.964-.345-1.434l-3.718-4.178-2.62-3.067 6.692-7.714s.407-.442-.01-.902Z" fill="#000" opacity=".3"/></g></symbol><symbol id="icon-arrow-checkbox"><g fill="none"><path d="M3.387 11.18 0 7.5V6c0 .04 0-.04 0 0V4.5l3.377 3.256c.116.122.305.12.42-.001L11 0v3.5l-6.192 6.62.002.002-1.003 1.058a.289.289 0 0 1-.42 0Z" fill="#161C35"/></g></symbol><symbol id="icon-arrow-pagination"><g fill="none"><path d="M0 9 9.75.34v17.32L0 9Z" fill="#1D2E5B"/></g></symbol><symbol id="icon-arrow"><g fill="none"><path d="m10.07 6.075-9.913 5.63V.444l9.913 5.63Z" fill="#1D2E5B"/></g></symbol><symbol id="icon-bicycle"><g fill="none"><path opacity=".15" d="M17.43 19.25a4.268 4.268 0 0 1-2.296-.666 3.997 3.997 0 0 1-1.523-1.774 3.794 3.794 0 0 1-.235-2.284 3.903 3.903 0 0 1 1.131-2.024 4.194 4.194 0 0 1 2.116-1.082 4.308 4.308 0 0 1 2.388.225 4.1 4.1 0 0 1 1.855 1.456c.454.65.697 1.414.697 2.196a3.872 3.872 0 0 1-1.212 2.794 4.234 4.234 0 0 1-2.921 1.159Zm0-6.531c-.533 0-1.055.151-1.498.434a2.607 2.607 0 0 0-.992 1.157c-.204.471-.258.99-.154 1.49.104.5.36.96.738 1.32.377.36.857.606 1.38.706a2.81 2.81 0 0 0 1.557-.147 2.674 2.674 0 0 0 1.21-.95 2.5 2.5 0 0 0 .454-1.432c0-.684-.285-1.339-.79-1.822a2.761 2.761 0 0 0-1.905-.756ZM5.57 19.25a4.267 4.267 0 0 1-2.296-.666 3.997 3.997 0 0 1-1.522-1.774 3.794 3.794 0 0 1-.235-2.284 3.903 3.903 0 0 1 1.131-2.024 4.194 4.194 0 0 1 2.116-1.082 4.308 4.308 0 0 1 2.388.225A4.1 4.1 0 0 1 9.007 13.1c.454.65.696 1.414.696 2.196a3.872 3.872 0 0 1-1.212 2.794 4.234 4.234 0 0 1-2.92 1.159Zm0-6.531c-.533 0-1.054.151-1.497.434a2.607 2.607 0 0 0-.993 1.157c-.204.471-.257.99-.153 1.49.104.5.36.96.737 1.32.377.36.858.606 1.38.706a2.81 2.81 0 0 0 1.558-.147 2.674 2.674 0 0 0 1.21-.95 2.5 2.5 0 0 0 .454-1.432c-.001-.684-.285-1.339-.79-1.822a2.761 2.761 0 0 0-1.906-.756ZM14.375 5.5c.19 0 .377-.035.552-.104.175-.069.334-.17.468-.299.133-.128.239-.28.31-.448.072-.168.109-.347.107-.528a1.304 1.304 0 0 0-.104-.526 1.351 1.351 0 0 0-.309-.446 1.423 1.423 0 0 0-.465-.298 1.474 1.474 0 0 0-.55-.101c-.189 0-.376.034-.55.103-.175.069-.334.17-.468.297-.134.127-.24.278-.313.445a1.324 1.324 0 0 0 .307 1.5c.133.127.291.229.465.299.174.07.361.105.55.106Z" fill="#1D2E5B"/><path opacity=".15" d="M16.511 8.25h-1.966a.186.186 0 0 1-.091-.024.176.176 0 0 1-.066-.065l-1.426-2.5a1.352 1.352 0 0 0-.423-.468 1.453 1.453 0 0 0-1.243-.187 1.405 1.405 0 0 0-.553.322L7.605 8.353a1.369 1.369 0 0 0-.418.963c0 .747.567 1.014.832 1.164a144.78 144.78 0 0 1 2.676 1.508.176.176 0 0 1 .063.063.167.167 0 0 1 .023.084v2.97c0 .37.298.687.684.706a.75.75 0 0 0 .53-.189.662.662 0 0 0 .223-.497V11.43a.664.664 0 0 0-.078-.314.697.697 0 0 0-.22-.245l-1.662-1.143a.174.174 0 0 1-.075-.123.165.165 0 0 1 .048-.135l1.887-1.925a.18.18 0 0 1 .153-.053.185.185 0 0 1 .079.028.174.174 0 0 1 .056.06l.98 1.691a.703.703 0 0 0 .265.26c.11.061.236.094.365.094h2.515a.747.747 0 0 0 .521-.213.684.684 0 0 0 .198-.508c-.019-.37-.352-.654-.739-.654Z" fill="#1D2E5B"/></g></symbol><symbol id="icon-bus"><g fill="none"><g clip-path="url(#a)"><path opacity=".15" d="M4.34 13.948a1.3 1.3 0 0 0-.415-.97 1.392 1.392 0 0 0-1.004-.4c-.392 0-.726.133-1.003.4a1.3 1.3 0 0 0-.416.97c0 .38.138.702.416.97.277.268.611.402 1.003.402.392 0 .726-.134 1.004-.402.277-.268.415-.59.415-.97Zm11.356 0a1.3 1.3 0 0 0-.416-.97 1.392 1.392 0 0 0-1.004-.4c-.392 0-.726.133-1.003.4a1.3 1.3 0 0 0-.416.97c0 .38.139.702.416.97.277.268.611.402 1.003.402.392 0 .727-.134 1.004-.402a1.3 1.3 0 0 0 .416-.97Zm-.51-4.242-.799-4.115a.695.695 0 0 0-.25-.401.698.698 0 0 0-.449-.156H3.508c-.17 0-.319.052-.448.156a.695.695 0 0 0-.25.401l-.798 4.115a.661.661 0 0 0 .155.568c.14.164.322.246.543.246h11.777a.682.682 0 0 0 .543-.246.661.661 0 0 0 .155-.568Zm-2.507-6.558a.488.488 0 0 0-.155-.364.523.523 0 0 0-.377-.15H5.05a.523.523 0 0 0-.377.15.488.488 0 0 0-.155.364.523.523 0 0 0 .532.514h7.097c.148 0 .274-.05.377-.15a.488.488 0 0 0 .155-.364Zm4.436 7.768v6.461h-1.42v1.372a1.3 1.3 0 0 1-.415.97 1.392 1.392 0 0 1-1.004.4c-.392 0-.726-.133-1.003-.4a1.3 1.3 0 0 1-.416-.97v-1.372H4.34v1.372c0 .378-.138.701-.415.97a1.392 1.392 0 0 1-1.004.4c-.392 0-.726-.133-1.003-.4a1.3 1.3 0 0 1-.416-.97v-1.372H.082v-6.46c0-.8.093-1.597.278-2.39l1.142-4.864c.066-.557.427-1.047 1.08-1.468.655-.422 1.505-.74 2.551-.954C6.18 1.027 7.335.92 8.6.92c1.264 0 2.419.107 3.465.321 1.046.215 1.896.532 2.55.954.655.421 1.015.91 1.082 1.468l1.164 4.864c.17.729.255 1.525.255 2.39Z" fill="#1D2E5B"/></g></g></symbol><symbol id="icon-businessman"><g fill="none"><path d="M23.376 23.242v-3.349c0-.937-.134-1.875-.67-2.812-.536-.938-1.205-1.742-2.143-2.277-.938-.67-2.947-.804-3.884-.804l-2.143 2.277.803 1.741v4.018L14 23.51l-1.34-1.474v-4.018l.938-1.741L11.321 14c-1.071 0-3.08.134-4.018.804-.938.535-1.473 1.339-2.009 2.277-.536.937-.67 1.74-.67 2.812v3.349S8.107 24.715 14 24.715c5.893 0 9.376-1.473 9.376-1.473ZM14 3.419c-2.545 0-4.018 2.41-3.616 5.09.401 2.678 1.74 4.554 3.616 4.554 1.875 0 3.215-1.876 3.616-4.554.402-2.813-1.071-5.09-3.616-5.09Z" fill="#132576"/></g></symbol><symbol id="icon-call"><g fill="none"><path d="M9.774 8.224c0 .189.154.337.342.337a.7.7 0 0 1 .703.696.34.34 0 0 0 .341.337.34.34 0 0 0 .342-.337 1.38 1.38 0 0 0-1.386-1.37.34.34 0 0 0-.342.337Zm5.558 1.37a.338.338 0 0 0 .341-.337c0-3.031-2.492-5.495-5.557-5.495a.34.34 0 0 0-.342.338.34.34 0 0 0 .342.337c2.69 0 4.875 2.164 4.875 4.82a.34.34 0 0 0 .34.337Z" fill="#161C35"/><path d="M12.905 9.257a.34.34 0 0 0 .341.337.34.34 0 0 0 .341-.337c0-1.894-1.556-3.433-3.471-3.433a.34.34 0 0 0-.342.338c0 .189.154.337.342.337 1.54 0 2.789 1.239 2.789 2.758ZM10.115 1.7a.34.34 0 0 0-.34.337.34.34 0 0 0 .34.338c3.841 0 6.965 3.088 6.965 6.882 0 .185.15.337.341.337a.34.34 0 0 0 .341-.337c0-4.168-3.43-7.557-7.646-7.557Zm3.336 11.114-.447.24c-.755.408-1.342 1.527-2.273.684L8.301 11.3 6.2 9.257c-1.055-1.334.126-1.65.54-2.4l.242-.439c.273-.5.372-1.06.29-1.62a2.557 2.557 0 0 0-.744-1.475 2.636 2.636 0 0 0-1.868-.762c-.706 0-1.372.27-1.87.762l-.174.176c-.922.911-1.028 2.48-.3 4.424C3 9.78 4.383 11.791 6.2 13.587c2.769 2.737 5.851 4.313 8.063 4.313.874 0 1.615-.246 2.14-.766l.178-.176c.495-.489.772-1.144.775-1.85a2.636 2.636 0 0 0-.775-1.845 2.683 2.683 0 0 0-3.13-.45Z" fill="#161C35"/></g></symbol><symbol id="icon-email"><g fill="none"><path fill-rule="evenodd" clip-rule="evenodd" d="M16.14 10.466 11.808 6.5l4.33-3.966-.59-.631L9.25 7.672l-6.299-5.77-.59.632L6.69 6.5l-4.33 3.966.59.631 4.38-4.011L9.25 8.844l1.92-1.758 4.379 4.011.59-.63ZM1.575.25C.767.25.111.949.111 1.808v9.384c0 .86.65 1.558 1.465 1.558h15.348c.81 0 1.465-.699 1.465-1.558V1.808c0-.86-.65-1.558-1.465-1.558H1.576Z" fill="#FFD74B"/></g></symbol><symbol id="icon-facebook"><g fill="none"><path d="M7.488 20.813H2.129v-9.675H0V6.352h2.066c-.157-2.168.236-3.75 1.195-4.83A4.879 4.879 0 0 1 4.896.397 5.078 5.078 0 0 1 6.867 0h3.756v4.612H7.669a4.7 4.7 0 0 0-.197 1.74h3.143v4.785H7.472l.016 9.675Zm-4.172-1.125h2.97v-9.675h3.143V7.5H6.286v-.57c0-1.5 0-2.842.785-3.345l.15-.098h2.208V1.125h-2.53a3.821 3.821 0 0 0-1.497.284c-.472.194-.897.48-1.246.841-.785.922-1.107 2.468-.864 4.605l.079.622H1.179v2.535h2.137v9.675Z" fill="#192144"/></g></symbol><symbol id="icon-favorite-current"><g fill="none"><path d="M3.255.474c1.693 0 3.064 1.348 3.064 3.01 0-1.662 1.371-3.01 3.064-3.01s3.064 1.348 3.064 3.01c0 2.505-2.477 3.389-5.828 7.377a.394.394 0 0 1-.6 0C2.669 6.873.19 5.989.19 3.484c0-1.662 1.372-3.01 3.064-3.01Z" fill="#F02323"/></g></symbol><symbol id="icon-favorite"><g fill="none"><path fill-rule="evenodd" clip-rule="evenodd" d="m6 4.665.67-1.41c.167-.349.456-.85.865-1.256.401-.4.883-.671 1.465-.671 1.257 0 2.25 1.044 2.25 2.3 0 .954-.415 1.627-1.401 2.655-.253.263-.54.547-.86.86-.83.82-1.864 1.84-2.989 3.202-1.125-1.363-2.159-2.382-2.99-3.201a44.458 44.458 0 0 1-.859-.861C1.166 5.255.75 4.582.75 3.628c0-1.256.993-2.3 2.25-2.3.582 0 1.064.272 1.465.67.41.407.698.908.865 1.257L6 4.665Zm.294 6.532A.387.387 0 0 1 6 11.34a.369.369 0 0 1-.294-.143c-1.2-1.499-2.288-2.57-3.182-3.451C.975 6.218 0 5.258 0 3.628 0 1.923 1.343.54 3 .54c1.2 0 2.04.827 2.553 1.582.195.287.343.564.447.781.13-.272.28-.533.447-.781C6.961 1.366 7.8.54 9 .54c1.658 0 3 1.383 3 3.088 0 1.63-.975 2.59-2.524 4.118-.895.882-1.981 1.953-3.182 3.45Z" fill="#192144" opacity=".5"/></g></symbol><symbol id="icon-filter"><g fill="none"><path fill="#192144" d="M7.174 0H15v2H7.174zM7.174 8H15v2H7.174zM0 4h7.826v2H0zM3.913 0H5.87v2H3.913zM3.913 8H5.87v2H3.913zM9.13 4h1.957v2H9.13zM0 0h2.609v2H0zM0 8h2.609v2H0zM12.391 4H15v2h-2.609z"/></g></symbol><symbol id="icon-html_logo"><g fill="none"><g clip-path="url(#a)"><path d="M13.643.101 13.5.086 0 1.464v24.102l13.5 7.823L27 25.566V1.464L13.643.101ZM25.234 24.59l-11.734 6.8-11.734-6.8v-9.88l11.685 6.774.02 1.228-8.017-4.646-.011 1.2 8.046 4.71.02 1.26-8.045-4.66-.01 1.2 8.046 4.71 8.124-4.734v-5.103l3.62-2.105-.01 10.046Zm0-11.327-3.22 1.842-1.482.857-7.065-4.101-.011 1.2 6.04 3.5-.053.03-.13.074-.86.482-4.986-2.888-.011 1.2 3.936 2.28-.933.598-.021.012-2.971-1.706-.011 1.2 1.947 1.11-1.988 1.163-11.618-6.731 11.638-6.815 11.8 6.693Zm0-1.2L13.44 5.288 1.766 12.055v-9.04l11.734-1.2 11.734 1.2v9.047Z" fill="#192144"/></g></g></symbol><symbol id="icon-instagram"><g fill="none"><g opacity=".5" fill="#192144"><path d="M12.96 1.8a3.247 3.247 0 0 1 3.24 3.24v7.92a3.248 3.248 0 0 1-3.24 3.24H5.04a3.247 3.247 0 0 1-3.233-3.24V5.04A3.247 3.247 0 0 1 5.04 1.8h7.92Zm0-1.08H5.04A4.32 4.32 0 0 0 .72 5.04v7.92a4.32 4.32 0 0 0 4.32 4.32h7.92a4.32 4.32 0 0 0 4.32-4.32V5.04A4.32 4.32 0 0 0 12.96.72Z"/><path d="M9.007 5.817a3.19 3.19 0 1 1-2.949 1.968 3.182 3.182 0 0 1 2.949-1.968Zm0-1.08a4.27 4.27 0 1 0 3.94 2.637 4.263 4.263 0 0 0-3.94-2.637ZM13.428 5.56a.965.965 0 1 0 0-1.93.965.965 0 0 0 0 1.93Z"/></g></g></symbol><symbol id="icon-level25"><g fill="none"><path d="M22.584 1.5a21 21 0 0 1 21 21" stroke="#FF8D30" stroke-width="3" stroke-linecap="round"/></g></symbol><symbol id="icon-level50"><g fill="none"><path d="M21.928 1.605a21.5 21.5 0 0 1 0 43" stroke="#FF8D30" stroke-width="3" stroke-linecap="round"/></g></symbol><symbol id="icon-level80"><g fill="none"><path d="M4.742 17.915A28 28 0 1 0 32.36 2.1" stroke="#FF8D30" stroke-width="4" stroke-linecap="round"/></g></symbol><symbol id="icon-level99"><g fill="none"><path d="M22.55 3.01a28 28 0 1 0 9.12-.96" stroke="#FF8D30" stroke-width="4" stroke-linecap="round"/></g></symbol><symbol id="icon-location"><g fill="none"><path d="M10.5 0a7.876 7.876 0 0 0-7.875 7.875c0 5.058 3.803 7.27 4.644 8.279C9.29 18.577 9.403 21 10.5 21s1.211-2.423 3.23-4.846c.841-1.01 4.645-3.22 4.645-8.279A7.876 7.876 0 0 0 10.5 0Zm0 13.125a5.25 5.25 0 1 1 0-10.5 5.25 5.25 0 0 1 0 10.5Zm0-7.875a2.626 2.626 0 0 0 0 5.25 2.626 2.626 0 0 0 0-5.25Z" fill="#FFD74B"/><circle cx="10.5" cy="7.875" fill="#161C35" r=".875"/></g></symbol><symbol id="icon-mail"><g fill="none"><path d="m2.017 3.325 6.75 4.23c.226.142.52.21.815.21.295 0 .589-.068.815-.21l6.75-4.23c.44-.276.856-1.35.049-1.35H1.969c-.807 0-.392 1.074.048 1.35Zm15.335 2.313-6.955 4.229c-.306.187-.52.209-.815.209-.295 0-.51-.022-.815-.21-.306-.186-6.42-3.925-6.92-4.229-.35-.214-.347.037-.347.23v7.658c0 .441.51 1.05.9 1.05h14.4c.39 0 .9-.609.9-1.05V5.868c0-.193.004-.444-.348-.23Z" fill="#161C35"/></g></symbol><symbol id="icon-plane"><g fill="none"><g clip-path="url(#a)"><path d="M16.783 2.093c-.728.173-1.46.347-1.733.824l-2.107 4.199L1.63 9.806l-.458 1.341 8.658.82-1.47 3.634-3.283.78-.824 1.43 2.369.256.27 1.169c.12.414.545.69.908.604l1.095-.26 1.268 2.163.825-1.428-.81-3.505 2.377-3.03 4.536 7.961.914-1.038L15.213 8.63l2.563-3.895c.276-.477.096-1.255-.085-2.036-.09-.387-.545-.691-.908-.605Z" fill="#101D41"/></g></g></symbol><symbol id="icon-run"><g fill="none"><path opacity=".15" d="M14.976 5.76c.95 0 1.721-.86 1.721-1.92s-.77-1.92-1.721-1.92c-.95 0-1.721.86-1.721 1.92s.77 1.92 1.72 1.92ZM13.923 10.53c.198.329.481.581.812.724.33.142.693.168 1.037.073l2.854-.796-.416-1.862-2.854.796L14.17 7.48a1.735 1.735 0 0 0-1.094-.82l-3.31-.739a1.56 1.56 0 0 0-1.094.158c-.34.185-.614.49-.783.867l-1.427 3.183 1.54.86 1.427-3.185 1.692.378-4.377 8.138H2.928v1.92h3.815c.601 0 1.167-.357 1.476-.932L9.87 14.24l4.448.992 1.563 5.231 1.632-.607-1.562-5.23a1.955 1.955 0 0 0-.495-.833 1.665 1.665 0 0 0-.801-.444l-2.615-.583 1.525-2.836.358.6Z" fill="#1D2E5B"/></g></symbol><symbol id="icon-subtract80"><g fill="none"><path fill-rule="evenodd" clip-rule="evenodd" d="M5.421 25.067A46.794 46.794 0 0 0 0 47c0 25.957 21.043 47 47 47s47-21.043 47-47S72.957 0 47 0v3c24.3 0 44 19.7 44 44S71.3 91 47 91 3 71.3 3 47a43.798 43.798 0 0 1 5.848-21.933H5.42Z" fill="#FF8D30"/></g></symbol><symbol id="icon-telephone"><g fill="none"><path fill-rule="evenodd" clip-rule="evenodd" d="M8.5.086c-2.796 0-5.6.473-6.617 1.415C1.04 2.283.758 3.663.663 4.538c0 0-.013.086-.013.123 0 .343.295.618.654.618.043 0 1.616-.12 2.565-.195.022-.003.045-.006.068-.012.353-.01.638-.281.638-.618l.003-1.217c0-.377.324-.68.723-.68H11.7c.399 0 .723.303.723.68l.003 1.217c0 .337.285.609.638.618.022.006.045.01.069.012.948.074 2.521.195 2.564.195.36 0 .654-.275.654-.618 0-.037-.013-.123-.013-.123-.095-.875-.376-2.255-1.22-3.037C14.1.559 11.297.086 8.5.086Zm0 8.032c-.723 0-1.308.553-1.308 1.235 0 .683.585 1.236 1.308 1.236.723 0 1.308-.553 1.308-1.236 0-.682-.585-1.235-1.308-1.235Zm-.981-2.78v-.773c0-.426-.367-.772-.818-.772-.451 0-.818.346-.818.772v.773l-4.412 4.45a1.504 1.504 0 0 0-.494 1.107v1.239c0 .682.586 1.235 1.309 1.235h.327v.772c0 .427.366.773.817.773.452 0 .818-.346.818-.773v-.772h8.504v.772c0 .427.366.773.818.773.451 0 .817-.346.817-.773v-.772h.327c.723 0 1.309-.553 1.309-1.236v-1.238c0-.433-.19-.825-.494-1.106l-4.412-4.451v-.773c0-.426-.367-.772-.818-.772-.451 0-.818.346-.818.772v.773H7.52ZM8.5 6.882c1.446 0 2.617 1.106 2.617 2.471 0 1.366-1.171 2.472-2.617 2.472s-2.617-1.106-2.617-2.472c0-1.365 1.171-2.47 2.617-2.47Z" fill="#FFD74B"/></g></symbol><symbol id="icon-user"><g fill="none"><path opacity=".1" d="M4.375 3.93c0 1.523 1.178 2.763 2.625 2.763s2.625-1.24 2.625-2.763c0-1.524-1.178-2.763-2.625-2.763S4.375 2.407 4.375 3.93Zm7.292 8.903h.583v-.614c0-2.37-1.832-4.298-4.083-4.298H5.833c-2.251 0-4.083 1.929-4.083 4.298v.614h9.917Z" fill="#192144"/></g></symbol><symbol id="icon-vkontakte"><g fill="none"><path d="M17.766 11.833a2.981 2.981 0 0 1-1.543-.472 7.563 7.563 0 0 1-1.32-1.148c-.327-.33-.869-.885-1.076-.885-.208 0-.356.69-.349 1.178a1.32 1.32 0 0 1-.349.907 1.666 1.666 0 0 1-.905.375H10.8a8.35 8.35 0 0 1-5.513-2.25C2.557 7.011.212 2.181.116 1.971A1.014 1.014 0 0 1 .227.86C.51.622.868.494 1.237.5H4.352c.25.037.49.126.704.262.202.137.363.326.467.548.32.692.687 1.361 1.099 2.002.971 1.5 1.402 1.845 1.558 1.92a6.154 6.154 0 0 0 .14-2.152 2.045 2.045 0 0 0-.155-.96.98.98 0 0 0-.572-.218l-.541-.517C6.949.89 7.49.463 7.869.298a6.382 6.382 0 0 1 2.337-.285h.527a6.688 6.688 0 0 1 1.595.15c1.261.27 1.217 1.298 1.165 2.483 0 .345-.037.75-.037 1.215v.36c-.03.326-.007.655.067.975a6.803 6.803 0 0 0 1.535-1.86c.43-.67.807-1.372 1.128-2.1.098-.23.266-.424.479-.552.213-.128.461-.184.708-.16h3.176c.093-.01.188-.01.282 0 .742 0 1.18.217 1.357.637.178.42.127 1.245-1.75 3.457l-.742.848c-.36.352-.67.754-.92 1.192.28.323.6.61.95.855.852.65 1.602 1.426 2.225 2.303a1.206 1.206 0 0 1 .193 1.26 1.693 1.693 0 0 1-1.395.75l-2.812.037-.17-.03Zm-3.94-3.63c.668 0 1.247.593 1.863 1.215.333.367.706.695 1.113.975.308.207.67.317 1.039.315h.074l2.82-.037a1.05 1.05 0 0 0 .4-.105l-.074-.12a9.864 9.864 0 0 0-1.989-2.04c-.883-.75-1.335-1.103-1.387-1.68-.052-.578.363-1.08 1.194-2.033l.742-.832a8.05 8.05 0 0 0 1.521-2.213 4.155 4.155 0 0 0-.497 0h-3.242a.404.404 0 0 0-.178 0A15.422 15.422 0 0 1 16 3.936c-1.403 2.115-2.063 2.4-2.53 2.4a.876.876 0 0 1-.416-.105c-.742-.428-.742-1.38-.697-2.07v-.323c0-.487 0-.907.037-1.267.06-1.26 0-1.268-.282-1.335a6.285 6.285 0 0 0-1.38-.12h-.512a9.543 9.543 0 0 0-1.41.075.88.88 0 0 1 .186.187c.306.488.458 1.058.438 1.635.096 1.238.044 2.85-.742 3.24-.14.066-.292.1-.446.098-.69 0-1.372-.66-2.537-2.445a17.617 17.617 0 0 1-1.195-2.138l-.059-.075a.891.891 0 0 0-.237-.082h-3.02c.438.915 2.515 4.965 4.837 7.087a7.378 7.378 0 0 0 4.764 1.973h1.372a.736.736 0 0 0 .2-.075v-.068c0-.202 0-1.95 1.173-2.25a1.23 1.23 0 0 1 .282-.075Z" fill="#192144"/></g></symbol></svg>