<svg xmlns="http://www.w3.org/2000/svg" xmlns:xlink="http://www.w3.org/1999/xlink"><symbol id="icon-arrow-bend" viewBox="0 0 32 16"><path d="M4 16h24a4 4 0 0 0 4-4V7a4 4 0 0 0-4-4H4v2h24a2 2 0 0 1 2 2v5a2 2 0 0 1-2 2H4v2Z"/><path d="M0 4 9 .54v6.92L0 4Z"/></symbol><symbol id="icon-arrow-calendar" viewBox="0 0 15 21"><path fill-rule="evenodd" clip-rule="evenodd" d="M8.81.4C8.71.3 8.6.2 8.47.14a.96.96 0 0 0-.82 0c-.13.06-.24.15-.34.26L.25 8.37a1.06 1.06 0 0 0 0 1.35L7.3 17.7a.98.98 0 0 0 1.5 0c.42-.47.07-.97-.34-1.44l-3.72-4.18-2.62-3.06 6.7-7.72s.4-.44-.02-.9Z"/></symbol><symbol id="icon-arrow-checkbox" viewBox="0 0 9 9"><path d="M2.835 8.464.389 5.805V4.722c0 .03 0-.03 0 0V3.64L2.828 5.99c.084.088.22.087.303 0L8.333.388v2.527L3.862 7.699V7.7l-.724.764a.209.209 0 0 1-.303 0Z"/></symbol><symbol id="icon-arrow-pagination" viewBox="0 0 10 18"><path fill-rule="evenodd" clip-rule="evenodd" d="M10 8.9.2 17.6V.2L10 9Z"/></symbol><symbol id="icon-arrow" viewBox="0 0 11 12"><path d="M12 7 0 13V1l12 6Z"/></symbol><symbol id="icon-bicycle" viewBox="0 0 15 17"><path d="M10.958 13.966a2.597 2.597 0 0 1-2.548-3.108 2.6 2.6 0 0 1 3.542-1.894 2.6 2.6 0 0 1-.994 5.002Zm0-4.296a1.694 1.694 0 0 0-1.662 2.026 1.695 1.695 0 1 0 1.662-2.026ZM3.502 13.966a2.597 2.597 0 0 1-2.548-3.108 2.6 2.6 0 0 1 3.542-1.894 2.599 2.599 0 0 1 .843 4.24 2.6 2.6 0 0 1-1.837.762Zm0-4.296a1.694 1.694 0 0 0-1.662 2.026A1.696 1.696 0 1 0 3.502 9.67ZM9.038 4.25a.785.785 0 0 0 .347-.08.907.907 0 0 0 .294-.231c.084-.1.15-.217.195-.347.045-.13.068-.268.067-.408a1.21 1.21 0 0 0-.065-.406 1.077 1.077 0 0 0-.195-.345.896.896 0 0 0-.292-.23.788.788 0 0 0-.692.001.908.908 0 0 0-.294.23 1.09 1.09 0 0 0-.196.344 1.226 1.226 0 0 0-.003.813c.045.13.112.247.195.345a.91.91 0 0 0 .293.232c.11.054.227.082.346.082Z"/><path d="M10.38 6.375H9.146a.1.1 0 0 1-.058-.018.126.126 0 0 1-.042-.051L8.15 4.375a1.001 1.001 0 0 0-.266-.362.81.81 0 0 0-.376-.182.751.751 0 0 0-.405.037.865.865 0 0 0-.348.25L4.781 6.454c-.165.199-.26.465-.262.744 0 .577.356.783.522.9.805.545 1.372.943 1.683 1.165.016.012.03.028.04.048.01.02.014.042.014.065v2.295c0 .286.187.531.43.545a.391.391 0 0 0 .18-.032.45.45 0 0 0 .154-.113.54.54 0 0 0 .103-.175.612.612 0 0 0 .037-.21V8.833a.608.608 0 0 0-.05-.242.517.517 0 0 0-.138-.19l-1.045-.883a.128.128 0 0 1-.032-.042.15.15 0 0 1-.01-.11.139.139 0 0 1 .026-.047L7.619 5.83a.113.113 0 0 1 .044-.035.097.097 0 0 1 .052-.007c.018.003.035.01.05.022a.127.127 0 0 1 .035.046l.616 1.307c.04.083.097.152.166.2.07.048.149.074.23.074h1.581a.395.395 0 0 0 .178-.043.459.459 0 0 0 .15-.122.554.554 0 0 0 .096-.181.62.62 0 0 0 .028-.211c-.012-.286-.221-.506-.465-.506Z"/></symbol><symbol id="icon-bus" viewBox="0 0 18 21"><path d="M4.3 14c0-.4-.1-.8-.4-1-.3-.3-.6-.4-1-.4s-.7.1-1 .4c-.3.2-.4.6-.4 1 0 .3.1.7.4 1 .3.2.6.3 1 .3s.7-.1 1-.4c.3-.2.4-.6.4-1Zm11.4 0c0-.4-.1-.8-.4-1-.3-.3-.6-.4-1-.4s-.8.1-1 .4c-.3.2-.4.6-.4 1 0 .3.1.7.4 1 .2.2.6.3 1 .3s.7-.1 1-.4c.3-.2.4-.6.4-1Zm-.5-4.3-.8-4.1c0-.2-.1-.3-.3-.4a.7.7 0 0 0-.4-.2H3.5c-.2 0-.3 0-.4.2-.2 0-.3.2-.3.4L2 9.7c0 .2 0 .4.2.6l.5.2h11.8c.2 0 .4 0 .5-.2.2-.2.2-.4.2-.6Zm-2.5-6.6s0-.2-.2-.3a.5.5 0 0 0-.4-.2h-7c-.2 0-.3 0-.4.2l-.2.3c0 .2 0 .3.2.4l.4.2h7c.2 0 .3 0 .4-.2l.2-.4ZM17 11v6.5h-1.4v1.3c0 .4-.1.8-.4 1-.3.3-.6.4-1 .4s-.8-.1-1-.4c-.3-.2-.4-.6-.4-1v-1.3H4.3v1.3c0 .4-.1.8-.4 1-.3.3-.6.4-1 .4s-.7-.1-1-.4c-.3-.2-.4-.6-.4-1v-1.3H.1V11c0-.8 0-1.6.3-2.4l1.1-4.8c0-.6.4-1 1-1.5.7-.4 1.6-.7 2.6-1a17.3 17.3 0 0 1 7 0c1 .3 1.9.6 2.5 1 .7.4 1 1 1.1 1.5l1.2 4.8.2 2.4Z"/></symbol><symbol id="icon-businessman" viewBox="0 0 28 28"><path d="M23.38 23.24V19.9a5.85 5.85 0 0 0-2.81-5.09c-.94-.67-2.95-.8-3.9-.8l-2.13 2.28.8 1.74v4.02L14 23.5l-1.34-1.47v-4.02l.94-1.74L11.32 14c-1.07 0-3.08.13-4.02.8a5.53 5.53 0 0 0-2 2.28 5.15 5.15 0 0 0-.68 2.81v3.35s3.49 1.48 9.38 1.48c5.9 0 9.38-1.48 9.38-1.48ZM14 3.42c-2.54 0-4.02 2.41-3.62 5.09.4 2.68 1.74 4.55 3.62 4.55 1.88 0 3.21-1.87 3.62-4.55.4-2.81-1.08-5.1-3.62-5.1Z"/></symbol><symbol id="icon-call" viewBox="0 0 19 19"><path d="M9.8 8.2c0 .2.1.4.3.4.4 0 .7.3.7.7 0 .1.2.3.4.3l.3-.3c0-.8-.6-1.4-1.4-1.4-.2 0-.3.1-.3.3Zm5.5 1.4c.2 0 .4-.2.4-.3 0-3-2.5-5.5-5.6-5.5-.2 0-.3.1-.3.3 0 .2.1.3.3.3 2.7 0 4.9 2.2 4.9 4.9 0 .1.1.3.3.3Z"/><path d="m12.9 9.3.3.3c.2 0 .4-.2.4-.3 0-2-1.6-3.5-3.5-3.5-.2 0-.3.2-.3.4s.1.3.3.3c1.6 0 2.8 1.2 2.8 2.8Zm-2.8-7.6c-.2 0-.3.2-.3.3 0 .2.1.4.3.4 3.9 0 7 3 7 6.9 0 .1.1.3.3.3.2 0 .4-.2.4-.3 0-4.2-3.5-7.6-7.7-7.6Zm3.4 11.1-.5.3c-.8.4-1.3 1.5-2.3.6l-2.4-2.4-2.1-2c-1-1.4.1-1.7.5-2.4l.3-.5a2.6 2.6 0 0 0-.5-3c-.5-.6-1.1-.8-1.8-.8s-1.4.2-2 .7v.2c-1 1-1.1 2.5-.4 4.4.7 1.9 2 3.9 3.9 5.7 2.8 2.7 5.9 4.3 8 4.3a3 3 0 0 0 2.2-.8l.2-.1a2.6 2.6 0 0 0 0-3.7c-.8-.9-2.1-1-3.1-.5Z"/></symbol><symbol id="icon-email" viewBox="0 0 19 13"><path fill-rule="evenodd" clip-rule="evenodd" d="m16.1 10.5-4.3-4 4.3-4-.6-.6-6.3 5.8L3 1.9l-.6.6 4.3 4-4.3 4 .6.6 4.3-4 2 1.7 1.9-1.7 4.3 4 .6-.6ZM1.6.2C.8.3 0 1 0 1.9v9.4c0 .9.7 1.6 1.5 1.6h15.3c.8 0 1.5-.7 1.5-1.6V1.8c0-.9-.7-1.6-1.5-1.6H1.6Z"/></symbol><symbol id="icon-facebook" viewBox="0 0 11 21"><path d="M7.5 20.8H2v-9.7H0V6.4h2c0-2.2.3-3.8 1.3-4.9A4.9 4.9 0 0 1 6.9 0h3.7v4.6h-3c-.1.6-.2 1.2-.1 1.8h3.1V11H7.5v9.7Zm-4.2-1.1h3V10h3.1V7.5H6.3v-.6c0-1.5 0-2.8.8-3.3l.1-.1h2.2V1H7a3.8 3.8 0 0 0-2.7 1.1c-.8 1-1.2 2.5-1 4.7l.2.6H1.2V10h2.1v9.7Z"/></symbol><symbol id="icon-favorite-current" viewBox="0 0 13 11"><path fill-rule="evenodd" clip-rule="evenodd" d="M3.3.5a3 3 0 0 1 3 3 3 3 0 0 1 3-3 3 3 0 0 1 3.1 3c0 2.5-2.4 3.4-5.8 7.4a.4.4 0 0 1-.6 0C2.7 6.9.2 5.9.2 3.5a3 3 0 0 1 3-3Z"/></symbol><symbol id="icon-favorite" viewBox="0 0 13 11"><path fill-rule="evenodd" clip-rule="evenodd" d="M6.3 4.5 7 3l.9-1.2c.4-.4.9-.7 1.5-.7 1.3 0 2.3 1 2.3 2.2 0 1-.4 1.6-1.4 2.6l-1 .9-3 3a40.3 40.3 0 0 0-4-3.9C1.4 5 1 4.4 1 3.4c0-1.2 1-2.2 2.3-2.2.5 0 1 .3 1.5.7.4.4.7.8.8 1.2l.7 1.4Zm.3 6.3a.4.4 0 0 1-.6 0 37.3 37.3 0 0 0-3.2-3.4C1.2 6 .2 5 .2 3.4a3 3 0 0 1 3-3C4.6.5 5.4 1.4 6 2l.4.7.5-.7C7.3 1.3 8.2.5 9.4.5a3 3 0 0 1 3 3c0 1.5-1 2.5-2.5 4-1 .8-2 1.8-3.3 3.3Z"/></symbol><symbol id="icon-filter" viewBox="0 0 16 10"><path fill-rule="evenodd" clip-rule="evenodd" d="M7.17 0H15v2H7.17zm0 8H15v2H7.17zM0 4h7.83v2H0zm3.91-4h1.96v2H3.91zm0 8h1.96v2H3.91zm5.22-4h1.96v2H9.13zM0 0h2.61v2H0zm0 8h2.61v2H0zm12.39-4H15v2h-2.61z"/></symbol><symbol id="icon-html_logo" viewBox="0 0 27 34"><path d="M13.6.1h-.1L0 1.5v24l13.5 7.9L27 25.6V1.5L13.6 0Zm11.6 24.5-11.7 6.8-11.7-6.8v-9.9l11.7 6.8v1.2l-8-4.6v1.2l8 4.7v1.2l-8-4.6v1.2l8 4.7 8.1-4.7v-5.2l3.6-2v10Zm0-11.3L22 15l-1.5.9-7-4.1V13l6 3.5h-.2l-.8.5-5-2.8v1.2l3.9 2.2-1 .6-3-1.7v1.2l2 1.2-2 1.1-11.6-6.7 11.6-6.8 11.8 6.7Zm0-1.2L13.4 5.3 1.8 12V3l11.7-1.3L25.2 3v9Z" fill="#192144"/></symbol><symbol id="icon-instagram" viewBox="0 0 18 18"><path d="M12.96 1.8a3.247 3.247 0 0 1 3.24 3.24v7.92a3.248 3.248 0 0 1-3.24 3.24H5.04a3.247 3.247 0 0 1-3.233-3.24V5.04A3.247 3.247 0 0 1 5.04 1.8h7.92Zm0-1.08H5.04A4.32 4.32 0 0 0 .72 5.04v7.92a4.32 4.32 0 0 0 4.32 4.32h7.92a4.32 4.32 0 0 0 4.32-4.32V5.04A4.32 4.32 0 0 0 12.96.72Z"/><path d="M9.007 5.817a3.19 3.19 0 1 1-2.949 1.968 3.182 3.182 0 0 1 2.949-1.968Zm0-1.08a4.27 4.27 0 1 0 3.94 2.637 4.263 4.263 0 0 0-3.94-2.637ZM13.428 5.56a.965.965 0 1 0 0-1.93.965.965 0 0 0 0 1.93Z"/></symbol><symbol id="icon-level25" viewBox="0 0 46 45"><path d="M22.584 1.5a21 21 0 0 1 21 21" stroke="#FF8D30" stroke-width="3" stroke-linecap="round"/></symbol><symbol id="icon-level50" viewBox="0 0 46 47"><path d="M21.928 1.605a21.5 21.5 0 0 1 0 43" stroke="#FF8D30" stroke-width="3" stroke-linecap="round"/></symbol><symbol id="icon-level80" viewBox="0 0 60 60"><path d="M4.742 17.915A28 28 0 1 0 32.36 2.1" stroke="#FF8D30" stroke-width="4" stroke-linecap="round"/></symbol><symbol id="icon-level99" viewBox="0 0 60 60"><path d="M22.55 3.01a28 28 0 1 0 9.12-.96" stroke="#FF8D30" stroke-width="4" stroke-linecap="round"/></symbol><symbol id="icon-location" viewBox="0 0 21 21"><path d="M10.5 0a7.876 7.876 0 0 0-7.875 7.875c0 5.058 3.803 7.27 4.644 8.279C9.29 18.577 9.403 21 10.5 21s1.211-2.423 3.23-4.846c.841-1.01 4.645-3.22 4.645-8.279A7.876 7.876 0 0 0 10.5 0Zm0 13.125a5.25 5.25 0 1 1 0-10.5 5.25 5.25 0 0 1 0 10.5Zm0-7.875a2.626 2.626 0 0 0 0 5.25 2.626 2.626 0 0 0 0-5.25Z" fill="#FFD74B"/><circle cx="10.5" cy="7.875" fill="#161C35" r=".875"/></symbol><symbol id="icon-mail" viewBox="0 0 19 17"><path d="m2.017 3.325 6.75 4.23c.226.142.52.21.815.21.295 0 .589-.068.815-.21l6.75-4.23c.44-.276.856-1.35.049-1.35H1.969c-.807 0-.392 1.074.048 1.35Zm15.335 2.313-6.955 4.229c-.306.187-.52.209-.815.209-.295 0-.51-.022-.815-.21-.306-.186-6.42-3.925-6.92-4.229-.35-.214-.347.037-.347.23v7.658c0 .441.51 1.05.9 1.05h14.4c.39 0 .9-.609.9-1.05V5.868c0-.193.004-.444-.348-.23Z"/></symbol><symbol id="icon-phone" viewBox="0 0 19 19"><path d="M9.774 8.224c0 .189.154.337.342.337a.7.7 0 0 1 .703.696.34.34 0 0 0 .341.337.34.34 0 0 0 .342-.337 1.38 1.38 0 0 0-1.386-1.37.34.34 0 0 0-.342.337Zm5.558 1.37a.338.338 0 0 0 .341-.337c0-3.031-2.492-5.495-5.557-5.495a.34.34 0 0 0-.342.338.34.34 0 0 0 .342.337c2.69 0 4.875 2.164 4.875 4.82a.34.34 0 0 0 .34.337Z"/><path d="M12.905 9.257a.34.34 0 0 0 .341.337.34.34 0 0 0 .341-.337c0-1.894-1.556-3.433-3.471-3.433a.34.34 0 0 0-.342.338c0 .189.154.337.342.337 1.54 0 2.789 1.239 2.789 2.758ZM10.115 1.7a.34.34 0 0 0-.34.337.34.34 0 0 0 .34.338c3.841 0 6.965 3.088 6.965 6.882 0 .185.15.337.341.337a.34.34 0 0 0 .341-.337c0-4.168-3.43-7.557-7.646-7.557Zm3.336 11.114-.447.24c-.755.408-1.342 1.527-2.273.684L8.301 11.3 6.2 9.257c-1.055-1.334.126-1.65.54-2.4l.242-.439c.273-.5.372-1.06.29-1.62a2.557 2.557 0 0 0-.744-1.475 2.636 2.636 0 0 0-1.868-.762c-.706 0-1.372.27-1.87.762l-.174.176c-.922.911-1.028 2.48-.3 4.424C3 9.78 4.383 11.791 6.2 13.587c2.769 2.737 5.851 4.313 8.063 4.313.874 0 1.615-.246 2.14-.766l.178-.176c.495-.489.772-1.144.775-1.85a2.636 2.636 0 0 0-.775-1.845 2.683 2.683 0 0 0-3.13-.45Z"/></symbol><symbol id="icon-plane" viewBox="0 0 21 23"><path d="M16.8 2c-.7.3-1.5.4-1.7 1l-2.2 4L1.6 9.8l-.4 1.3 8.6.9-1.4 3.6-3.3.8-.8 1.4 2.3.3.3 1.1c.1.4.5.7.9.6l1-.2 1.4 2.1.8-1.4-.8-3.5 2.4-3 4.5 8 .9-1.1-2.8-12 2.6-4c.3-.4 0-1.2-.1-2-.1-.4-.6-.7-1-.6Z"/></symbol><symbol id="icon-run" viewBox="0 0 21 24"><path d="M14.976 5.76c.95 0 1.721-.86 1.721-1.92s-.77-1.92-1.721-1.92c-.95 0-1.721.86-1.721 1.92s.77 1.92 1.72 1.92ZM13.923 10.53c.198.329.481.581.812.724.33.142.693.168 1.037.073l2.854-.796-.416-1.862-2.854.796L14.17 7.48a1.735 1.735 0 0 0-1.094-.82l-3.31-.739a1.56 1.56 0 0 0-1.094.158c-.34.185-.614.49-.783.867l-1.427 3.183 1.54.86 1.427-3.185 1.692.378-4.377 8.138H2.928v1.92h3.815c.601 0 1.167-.357 1.476-.932L9.87 14.24l4.448.992 1.563 5.231 1.632-.607-1.562-5.23a1.955 1.955 0 0 0-.495-.833 1.665 1.665 0 0 0-.801-.444l-2.615-.583 1.525-2.836.358.6Z"/></symbol><symbol id="icon-subtract80" viewBox="0 0 94 94"><path fill-rule="evenodd" clip-rule="evenodd" d="M5.421 25.067A46.794 46.794 0 0 0 0 47c0 25.957 21.043 47 47 47s47-21.043 47-47S72.957 0 47 0v3c24.3 0 44 19.7 44 44S71.3 91 47 91 3 71.3 3 47a43.798 43.798 0 0 1 5.848-21.933H5.42Z" fill="#FF8D30"/></symbol><symbol id="icon-telephone" viewBox="0 0 17 15"><path fill-rule="evenodd" clip-rule="evenodd" d="M8.5.086c-2.796 0-5.6.473-6.617 1.415C1.04 2.283.758 3.663.663 4.538c0 0-.013.086-.013.123 0 .343.295.618.654.618.043 0 1.616-.12 2.565-.195.022-.003.045-.006.068-.012.353-.01.638-.281.638-.618l.003-1.217c0-.377.324-.68.723-.68H11.7c.399 0 .723.303.723.68l.003 1.217c0 .337.285.609.638.618.022.006.045.01.069.012.948.074 2.521.195 2.564.195.36 0 .654-.275.654-.618 0-.037-.013-.123-.013-.123-.095-.875-.376-2.255-1.22-3.037C14.1.559 11.297.086 8.5.086Zm0 8.032c-.723 0-1.308.553-1.308 1.235 0 .683.585 1.236 1.308 1.236.723 0 1.308-.553 1.308-1.236 0-.682-.585-1.235-1.308-1.235Zm-.981-2.78v-.773c0-.426-.367-.772-.818-.772-.451 0-.818.346-.818.772v.773l-4.412 4.45a1.504 1.504 0 0 0-.494 1.107v1.239c0 .682.586 1.235 1.309 1.235h.327v.772c0 .427.366.773.817.773.452 0 .818-.346.818-.773v-.772h8.504v.772c0 .427.366.773.818.773.451 0 .817-.346.817-.773v-.772h.327c.723 0 1.309-.553 1.309-1.236v-1.238c0-.433-.19-.825-.494-1.106l-4.412-4.451v-.773c0-.426-.367-.772-.818-.772-.451 0-.818.346-.818.772v.773H7.52ZM8.5 6.882c1.446 0 2.617 1.106 2.617 2.471 0 1.366-1.171 2.472-2.617 2.472s-2.617-1.106-2.617-2.472c0-1.365 1.171-2.47 2.617-2.47Z"/></symbol><symbol id="icon-user" viewBox="0 0 12 12"><path d="M3.375 2.93c0 1.523 1.178 2.763 2.625 2.763s2.625-1.24 2.625-2.763C8.625 1.406 7.447.167 6 .167S3.375 1.407 3.375 2.93Zm7.292 8.903h.583v-.614c0-2.37-1.832-4.298-4.083-4.298H4.833C2.582 6.921.75 8.85.75 11.219v.614h9.917Z"/></symbol><symbol id="icon-vkontakte" viewBox="0 0 23 12"><path d="M17.766 11.833a2.981 2.981 0 0 1-1.543-.472 7.563 7.563 0 0 1-1.32-1.148c-.327-.33-.869-.885-1.076-.885-.208 0-.356.69-.349 1.178a1.32 1.32 0 0 1-.349.907 1.666 1.666 0 0 1-.905.375H10.8a8.35 8.35 0 0 1-5.513-2.25C2.557 7.011.212 2.181.116 1.971A1.014 1.014 0 0 1 .227.86C.51.622.868.494 1.237.5H4.352c.25.037.49.126.704.262.202.137.363.326.467.548.32.692.687 1.361 1.099 2.002.971 1.5 1.402 1.845 1.558 1.92a6.154 6.154 0 0 0 .14-2.152 2.045 2.045 0 0 0-.155-.96.98.98 0 0 0-.572-.218l-.541-.517C6.949.89 7.49.463 7.869.298a6.382 6.382 0 0 1 2.337-.285h.527a6.688 6.688 0 0 1 1.595.15c1.261.27 1.217 1.298 1.165 2.483 0 .345-.037.75-.037 1.215v.36c-.03.326-.007.655.067.975a6.803 6.803 0 0 0 1.535-1.86c.43-.67.807-1.372 1.128-2.1.098-.23.266-.424.479-.552.213-.128.461-.184.708-.16h3.176c.093-.01.188-.01.282 0 .742 0 1.18.217 1.357.637.178.42.127 1.245-1.75 3.457l-.742.848c-.36.352-.67.754-.92 1.192.28.323.6.61.95.855.852.65 1.602 1.426 2.225 2.303a1.206 1.206 0 0 1 .193 1.26 1.693 1.693 0 0 1-1.395.75l-2.812.037-.17-.03Zm-3.94-3.63c.668 0 1.247.593 1.863 1.215.333.367.706.695 1.113.975.308.207.67.317 1.039.315h.074l2.82-.037a1.05 1.05 0 0 0 .4-.105l-.074-.12a9.864 9.864 0 0 0-1.989-2.04c-.883-.75-1.335-1.103-1.387-1.68-.052-.578.363-1.08 1.194-2.033l.742-.832a8.05 8.05 0 0 0 1.521-2.213 4.155 4.155 0 0 0-.497 0h-3.242a.404.404 0 0 0-.178 0A15.422 15.422 0 0 1 16 3.936c-1.403 2.115-2.063 2.4-2.53 2.4a.876.876 0 0 1-.416-.105c-.742-.428-.742-1.38-.697-2.07v-.323c0-.487 0-.907.037-1.267.06-1.26 0-1.268-.282-1.335a6.285 6.285 0 0 0-1.38-.12h-.512a9.543 9.543 0 0 0-1.41.075.88.88 0 0 1 .186.187c.306.488.458 1.058.438 1.635.096 1.238.044 2.85-.742 3.24-.14.066-.292.1-.446.098-.69 0-1.372-.66-2.537-2.445a17.617 17.617 0 0 1-1.195-2.138l-.059-.075a.891.891 0 0 0-.237-.082h-3.02c.438.915 2.515 4.965 4.837 7.087a7.378 7.378 0 0 0 4.764 1.973h1.372a.736.736 0 0 0 .2-.075v-.068c0-.202 0-1.95 1.173-2.25a1.23 1.23 0 0 1 .282-.075Z"/></symbol></svg>