<svg xmlns="http://www.w3.org/2000/svg">
    <symbol viewBox="0 0 14 16" id="icon-arrow">
      <path d="M12 7 0 13V1l12 6Z" />
    </symbol>

    <symbol viewBox="0 0 21 21" id="icon-location">
    <g>
    <path d="M10.5 0a7.9 7.9 0 0 0-7.9 7.9c0 5 3.8 7.2 4.7 8.3 2 2.4 2.1 4.8 3.2 4.8s1.2-2.4 3.2-4.8c.9-1 4.7-3.3 4.7-8.3 0-4.4-3.6-7.9-7.9-7.9Zm0 13.1a5.3 5.3 0 1 1 0-10.5 5.3 5.3 0 0 1 0 10.5Zm0-7.8a2.6 2.6 0 1 0 0 5.2 2.6 2.6 0 0 0 0-5.3Z" fill="#FFD74B"/>
    <circle cx="10.5" cy="7.9" fill="#161C35" r=".9"/>
    </g>
    </symbol>

    <symbol viewBox="0 0 12 12" id="icon-user">
      <path d="M3.4 3c0 1.5 1.2 2.7 2.6 2.7 1.4 0 2.6-1.2 2.6-2.8C8.6 1.4 7.4.2 6 .2a2.7 2.7 0 0 0-2.6 2.7Zm7.3 8.8h.6v-.6c0-2.4-2-4.2-4.1-4.2H4.8c-2.2 0-4 2-4 4.3v.6h9.9Z" />
    </symbol>

    <symbol viewBox="0 0 19 17" id="icon-telephone">
      <path fill-rule="evenodd" clip-rule="evenodd" d="M9.5 1c-2.8 0-5.6.6-6.6 1.5-.9.8-1.1 2.2-1.2 3v.2c0 .3.2.6.6.6L4.9 6c.4 0 .7-.3.7-.6V4.2c0-.3.3-.6.7-.6h6.4c.4 0 .7.3.7.6v1.3c0 .3.3.6.7.6l2.6.2c.4 0 .6-.3.6-.6v-.2c0-.8-.3-2.2-1.2-3-1-1-3.8-1.4-6.6-1.4Zm0 8.1c-.7 0-1.3.6-1.3 1.3 0 .6.6 1.2 1.3 1.2.7 0 1.3-.6 1.3-1.2 0-.7-.6-1.3-1.3-1.3Zm-1-2.8v-.7c0-.5-.3-.8-.8-.8s-.8.3-.8.8v.7l-4.4 4.5c-.3.3-.5.7-.5 1v1.3c0 .7.6 1.3 1.3 1.3h.3v.7c0 .5.4.8.8.8.5 0 .8-.3.8-.8v-.7h8.6v.7c0 .5.3.8.8.8.4 0 .8-.3.8-.8v-.7h.3c.7 0 1.3-.6 1.3-1.3V12c0-.4-.2-.8-.5-1.1l-4.4-4.5v-.7c0-.5-.3-.8-.8-.8s-.8.3-.8.8v.7h-2Zm1 1.6c1.4 0 2.6 1 2.6 2.5 0 1.3-1.2 2.4-2.6 2.4a2.5 2.5 0 0 1-2.6-2.4C6.9 9 8 7.9 9.5 7.9Z" fill="#FFD74B"/>
    </symbol>

    <symbol viewBox="0 0 19 17" id="icon-mail">
      <path d="m2 3.3 6.8 4.3.8.2.8-.2 6.7-4.3c.5-.3.9-1.3.1-1.3H2c-.8 0-.4 1 0 1.3Zm15.4 2.3-7 4.3c-.3.2-.5.2-.8.2-.3 0-.5 0-.8-.2l-7-4.3c-.3-.2-.3 0-.3.3v7.6c0 .5.5 1 .9 1h14.4c.4 0 .9-.5.9-1V6c0-.2 0-.5-.3-.3Z" />
    </symbol>

    <symbol viewBox="0 0 27 34" id="icon-html_logo">
      <path d="M13.6.1h-.1L0 1.5v24l13.5 7.9L27 25.6V1.5L13.6 0Zm11.6 24.5-11.7 6.8-11.7-6.8v-9.9l11.7 6.8v1.2l-8-4.6v1.2l8 4.7v1.2l-8-4.6v1.2l8 4.7 8.1-4.7v-5.2l3.6-2v10Zm0-11.3L22 15l-1.5.9-7-4.1V13l6 3.5h-.2l-.8.5-5-2.8v1.2l3.9 2.2-1 .6-3-1.7v1.2l2 1.2-2 1.1-11.6-6.7 11.6-6.8 11.8 6.7Zm0-1.2L13.4 5.3 1.8 12V3l11.7-1.3L25.2 3v9Z" fill="#192144"/>
    </symbol>

    <symbol viewBox="0 0 19 13" id="icon-email">
      <path fill-rule="evenodd" clip-rule="evenodd" d="m16.1 10.5-4.3-4 4.3-4-.6-.6-6.3 5.8L3 1.9l-.6.6 4.3 4-4.3 4 .6.6 4.3-4 2 1.7 1.9-1.7 4.3 4 .6-.6ZM1.6.2C.8.3 0 1 0 1.9v9.4c0 .9.7 1.6 1.5 1.6h15.3c.8 0 1.5-.7 1.5-1.6V1.8c0-.9-.7-1.6-1.5-1.6H1.6Z" />
    </symbol>

    <symbol viewBox="0 0 19 19" id="icon-call">
    <g>
    <path d="M9.8 8.2c0 .2.1.4.3.4.4 0 .7.3.7.7 0 .1.2.3.4.3l.3-.3c0-.8-.6-1.4-1.4-1.4-.2 0-.3.1-.3.3Zm5.5 1.4c.2 0 .4-.2.4-.3 0-3-2.5-5.5-5.6-5.5-.2 0-.3.1-.3.3 0 .2.1.3.3.3 2.7 0 4.9 2.2 4.9 4.9 0 .1.1.3.3.3Z"/>
      <path d="m12.9 9.3.3.3c.2 0 .4-.2.4-.3 0-2-1.6-3.5-3.5-3.5-.2 0-.3.2-.3.4s.1.3.3.3c1.6 0 2.8 1.2 2.8 2.8Zm-2.8-7.6c-.2 0-.3.2-.3.3 0 .2.1.4.3.4 3.9 0 7 3 7 6.9 0 .1.1.3.3.3.2 0 .4-.2.4-.3 0-4.2-3.5-7.6-7.7-7.6Zm3.4 11.1-.5.3c-.8.4-1.3 1.5-2.3.6l-2.4-2.4-2.1-2c-1-1.4.1-1.7.5-2.4l.3-.5a2.6 2.6 0 0 0-.5-3c-.5-.6-1.1-.8-1.8-.8s-1.4.2-2 .7v.2c-1 1-1.1 2.5-.4 4.4.7 1.9 2 3.9 3.9 5.7 2.8 2.7 5.9 4.3 8 4.3a3 3 0 0 0 2.2-.8l.2-.1a2.6 2.6 0 0 0 0-3.7c-.8-.9-2.1-1-3.1-.5Z"/>
    </g>
    </symbol>

    <symbol viewBox="0 0 25 24" id="icon-bycicle">
    <g>
    <path d="M18.3 21a4.2 4.2 0 0 1-4-2.7 4.4 4.4 0 0 1 1-4.7 4.2 4.2 0 0 1 7.3 3c0 1.2-.5 2.3-1.3 3.1-.8.8-1.9 1.3-3 1.3Zm0-7.1a2.7 2.7 0 0 0-2.6 1.7 2.8 2.8 0 0 0 .6 3 2.8 2.8 0 0 0 4.8-2 2.8 2.8 0 0 0-2.8-2.8ZM6.1 21a4.2 4.2 0 0 1-4-2.7 4.4 4.4 0 0 1 1-4.7 4.2 4.2 0 0 1 7.3 3c0 1.2-.5 2.3-1.3 3.1-.8.8-1.9 1.3-3 1.3Zm0-7.1a2.7 2.7 0 0 0-2.6 1.7 2.8 2.8 0 0 0 .6 3 2.8 2.8 0 0 0 4.8-2A2.8 2.8 0 0 0 6 13.9ZM15.2 6a1.5 1.5 0 0 0 1.3-1l.1-.5a1.5 1.5 0 0 0-.9-1.4l-.5-.1a1.5 1.5 0 0 0-1.4 1 1.5 1.5 0 0 0 .8 1.9l.6.1Z" />
      <path d="M17.4 9h-2a.2.2 0 0 1-.2-.1l-1.5-2.7a1.4 1.4 0 0 0-1-.8 1.4 1.4 0 0 0-1.3.4L8.2 9.1c-.3.3-.4.7-.4 1 0 .9.6 1.2.8 1.3a146.3 146.3 0 0 1 2.9 1.8v3.3c0 .4.3.7.7.7a.7.7 0 0 0 .7-.4v-4.3a.8.8 0 0 0-.3-.6L11 10.6a.2.2 0 0 1 0-.1.2.2 0 0 1 0-.2l2-2a.2.2 0 0 1 .2-.1l1 2a.7.7 0 0 0 .7.3h2.6a.7.7 0 0 0 .5-.2.8.8 0 0 0-.5-1.3Z"/>
    </g>
    </symbol>

    <symbol viewBox="0 0 18 21" id="icon-bus">
      <path d="M4.3 14c0-.4-.1-.8-.4-1-.3-.3-.6-.4-1-.4s-.7.1-1 .4c-.3.2-.4.6-.4 1 0 .3.1.7.4 1 .3.2.6.3 1 .3s.7-.1 1-.4c.3-.2.4-.6.4-1Zm11.4 0c0-.4-.1-.8-.4-1-.3-.3-.6-.4-1-.4s-.8.1-1 .4c-.3.2-.4.6-.4 1 0 .3.1.7.4 1 .2.2.6.3 1 .3s.7-.1 1-.4c.3-.2.4-.6.4-1Zm-.5-4.3-.8-4.1c0-.2-.1-.3-.3-.4a.7.7 0 0 0-.4-.2H3.5c-.2 0-.3 0-.4.2-.2 0-.3.2-.3.4L2 9.7c0 .2 0 .4.2.6l.5.2h11.8c.2 0 .4 0 .5-.2.2-.2.2-.4.2-.6Zm-2.5-6.6s0-.2-.2-.3a.5.5 0 0 0-.4-.2h-7c-.2 0-.3 0-.4.2l-.2.3c0 .2 0 .3.2.4l.4.2h7c.2 0 .3 0 .4-.2l.2-.4ZM17 11v6.5h-1.4v1.3c0 .4-.1.8-.4 1-.3.3-.6.4-1 .4s-.8-.1-1-.4c-.3-.2-.4-.6-.4-1v-1.3H4.3v1.3c0 .4-.1.8-.4 1-.3.3-.6.4-1 .4s-.7-.1-1-.4c-.3-.2-.4-.6-.4-1v-1.3H.1v-6.5c0-.8 0-1.6.3-2.4l1.1-4.8c0-.6.4-1 1-1.5.7-.4 1.6-.7 2.6-1a17.3 17.3 0 0 1 7 0c1 .3 1.9.6 2.5 1 .7.4 1 1 1.1 1.5l1.2 4.8.2 2.4Z" />
    </symbol>

    <symbol viewBox="0 0 21 23" id="icon-plane">
      <path d="M16.8 2c-.7.3-1.5.4-1.7 1L12.9 7 1.6 9.8l-.4 1.3 8.6.9-1.4 3.6-3.3.8-.8 1.4 2.3.3.3 1.1c.1.4.5.7.9.6l1-.2 1.4 2.1.8-1.4-.8-3.5 2.4-3 4.5 8 .9-1.1-2.8-12 2.6-4c.3-.4 0-1.2-.1-2-.1-.4-.6-.7-1-.6Z" />
    </symbol>

    <symbol viewBox="0 0 21 24" id="icon-run">
      <path d="M15 5.8c1 0 1.7-.9 1.7-2 0-1-.8-1.9-1.7-1.9-1 0-1.7.9-1.7 2 0 1 .7 1.9 1.7 1.9ZM14 10.5c.1.4.4.6.7.8h1l3-.8-.5-1.8-2.8.8-1.2-2c-.3-.4-.7-.7-1.1-.8l-3.3-.8c-.4 0-.8 0-1.1.2-.4.2-.6.5-.8.8l-1.4 3.2L8 11l1.4-3.2 1.7.4-4.4 8.1H3v2h3.8c.6 0 1.2-.4 1.5-1l1.7-3 4.4 1 1.6 5.2 1.6-.6-1.5-5.3a2 2 0 0 0-.5-.8l-.8-.5-2.7-.5 1.6-2.9.3.6Z"/>
    </symbol>

    <symbol viewBox="0 0 11 21" id="icon-facebook">
      <path d="M7.5 20.8H2v-9.7H0V6.4h2c0-2.2.3-3.8 1.3-4.9A4.9 4.9 0 0 1 6.9 0h3.7v4.6h-3c-.1.6-.2 1.2-.1 1.8h3.1V11H7.5v9.7Zm-4.2-1.1h3V10h3.1V7.5H6.3v-.6c0-1.5 0-2.8.8-3.3l.1-.1h2.2V1H7a3.8 3.8 0 0 0-2.7 1.1c-.8 1-1.2 2.5-1 4.7l.2.6H1.2V10h2.1v9.7Z" />
    </symbol>

    <symbol viewBox="0 0 18 18" id="icon-instagram">
    <g>
    <path d="M13 1.8A3.2 3.2 0 0 1 16.2 5v8a3.2 3.2 0 0 1-3.2 3.2H5A3.2 3.2 0 0 1 1.8 13V5A3.2 3.2 0 0 1 5 1.8h8Zm0-1H5A4.3 4.3 0 0 0 .7 5v8A4.3 4.3 0 0 0 5 17.3h8a4.3 4.3 0 0 0 4.3-4.3V5A4.3 4.3 0 0 0 13 .7Z"/>
      <path d="M9 5.8a3.2 3.2 0 1 1 0 6.4 3.2 3.2 0 0 1 0-6.4Zm0-1a4.3 4.3 0 1 0 0 8.5 4.3 4.3 0 0 0 0-8.6ZM13.4 5.6a1 1 0 1 0 0-2 1 1 0 0 0 0 2Z"/>
    </g>
    </symbol>

    <symbol viewBox="0 0 23 12" id="icon-vkontakte">
      <path d="M17.8 11.8a3 3 0 0 1-1.6-.4L15 10.2l-1-.9c-.3 0-.4.7-.4 1.2 0 .3-.1.7-.4 1-.2.1-.5.3-.9.3h-1.4c-2 0-4-.9-5.5-2.3A30 30 0 0 1 0 1.4L.2.9c.3-.3.7-.4 1-.4h3.2l.7.3.4.5 1.1 2c1 1.5 1.4 1.9 1.6 2 .2-.8.2-1.5.1-2.2l-.1-1a1 1 0 0 0-.6-.2L7 1.4c-.2-.5.4-1 .8-1.1.7-.2 1.5-.3 2.3-.3h.5c.6 0 1.1 0 1.6.2 1.3.2 1.2 1.3 1.2 2.4v2.6c.6-.5 1.2-1.2 1.6-1.9.4-.6.8-1.3 1-2a1.2 1.2 0 0 1 1.3-.8h3.4c.8 0 1.2.2 1.4.7.2.4.1 1.2-1.8 3.4l-.7.9c-.4.3-.7.7-1 1.2l1 .8c.9.7 1.6 1.4 2.3 2.3a1.2 1.2 0 0 1 .1 1.3 1.7 1.7 0 0 1-1.4.7h-2.9Zm-4-3.6c.7 0 1.3.6 1.9 1.2l1.1 1c.3.2.7.3 1 .3h2.9l.4-.1v-.2a9.9 9.9 0 0 0-2-2c-1-.7-1.4-1.1-1.4-1.7 0-.6.3-1 1.2-2l.7-.8a8 8 0 0 0 1.5-2.3H17.2c-.3.8-.7 1.6-1.2 2.3-1.4 2.2-2 2.4-2.5 2.4H13c-.8-.5-.8-1.4-.7-2.1V2.6c0-1.3 0-1.3-.3-1.4H8.8l.2.2c.3.5.5 1 .4 1.6.1 1.3 0 2.9-.7 3.3a1 1 0 0 1-.5 0C7.6 6.4 7 5.8 5.7 4L4.5 1.8v-.1H1.2c.4.8 2.5 4.9 4.8 7 1.3 1.2 3 2 4.8 2h1.4l.2-.1c0-.3 0-2 1.1-2.3l.3-.1Z" />
    </symbol>

    <symbol viewBox="0 0 13 11" id="icon-favorite">
      <path fill-rule="evenodd" clip-rule="evenodd" d="M6.3 4.5 7 3l.9-1.2c.4-.4.9-.7 1.5-.7 1.3 0 2.3 1 2.3 2.2 0 1-.4 1.6-1.4 2.6l-1 .9-3 3a40.3 40.3 0 0 0-4-3.9C1.4 5 1 4.4 1 3.4c0-1.2 1-2.2 2.3-2.2.5 0 1 .3 1.5.7.4.4.7.8.8 1.2l.7 1.4Zm.3 6.3a.4.4 0 0 1-.6 0 37.3 37.3 0 0 0-3.2-3.4C1.2 6 .2 5 .2 3.4a3 3 0 0 1 3-3C4.6.5 5.4 1.4 6 2l.4.7.5-.7C7.3 1.3 8.2.5 9.4.5a3 3 0 0 1 3 3c0 1.5-1 2.5-2.5 4-1 .8-2 1.8-3.3 3.3Z" />
    </symbol>

    <symbol viewBox="0 0 13 11" id="icon-favorite-current">
      <path fill-rule="evenodd" clip-rule="evenodd" d="M3.3.5a3 3 0 0 1 3 3 3 3 0 0 1 3-3 3 3 0 0 1 3.1 3c0 2.5-2.4 3.4-5.8 7.4a.4.4 0 0 1-.6 0C2.7 6.9.2 5.9.2 3.5a3 3 0 0 1 3-3Z" />
    </symbol>

    <symbol viewBox="0 0 10 18" id="icon-arrow-pagination">
      <path fill-rule="evenodd" clip-rule="evenodd" d="M10 8.9.2 17.6V.2L10 9Z" />
    </symbol>

    <symbol viewBox="0 0 14 13" id="icon-arrow-checkbox">
      <path fill-rule="evenodd" clip-rule="evenodd" d="M5.8 10.9 3.2 8V6l2.6 2.4H6l5.4-5.8V5.1l-4.6 5-.8.8h-.3Z" />
    </symbol>

    <symbol viewBox="0 0 46 45" id="icon-level99">
      <path d="M23.5 1.5a21 21 0 1 1-3.9.2" stroke-width="3" stroke-linecap="round" />
    </symbol>

    <symbol viewBox="0 0 46 45" id="icon-level80">
      <path d="M23.5 1.5A21 21 0 1 1 3.2 15.4" stroke-width="3" stroke-linecap="round"/>
    </symbol>

    <symbol viewBox="0 0 46 45" id="icon-level25">
      <path d="M22.6 1.5a21 21 0 0 1 21 21" stroke-width="3" stroke-linecap="round"/>
    </symbol>

    <symbol viewBox="0 0 46 47" id="icon-level50">
      <path d="M21.5 2a21.5 21.5 0 1 1 0 43" stroke-width="3" stroke-linecap="round"/>
    </symbol>
  </svg>
