<svg width="18" height="17" fill="none" xmlns="http://www.w3.org/2000/svg"><g clip-path="url(#a)"><path d="M13.915.928c-.59.132-1.182.265-1.403.629l-1.706 3.206-9.158 2.053-.37 1.025 7.007.625-1.189 2.775-2.657.596-.668 1.09 1.918.197.218.892c.098.316.442.527.735.461l.886-.198 1.027 1.652.668-1.091-.656-2.676L10.49 9.85l3.672 6.079.74-.793-2.26-9.218 2.075-2.974c.224-.365.078-.958-.068-1.555-.073-.295-.442-.527-.735-.461Z" fill="#1D2E5B"/></g><defs><clipPath id="a"><path fill="#fff" transform="translate(.33 .063)" d="M0 0h16.858v16.125H0z"/></clipPath></defs></svg>