<svg width="18" height="17" fill="none" xmlns="http://www.w3.org/2000/svg"><g clip-path="url(#a)"><path d="M4.545 11.005c0-.319-.137-.59-.411-.815a1.515 1.515 0 0 0-.993-.337c-.388 0-.719.112-.993.337-.274.225-.412.497-.412.815 0 .317.138.589.412.814.274.225.605.337.993.337.387 0 .718-.112.993-.337.274-.225.411-.497.411-.815Zm11.234 0c0-.319-.137-.59-.412-.815a1.515 1.515 0 0 0-.992-.337c-.388 0-.719.112-.993.337-.274.225-.412.497-.412.815 0 .317.138.589.412.814.274.225.605.337.993.337.387 0 .718-.112.992-.337.275-.225.412-.497.412-.815Zm-.505-3.564-.79-3.455a.58.58 0 0 0-.246-.338.772.772 0 0 0-.445-.13H3.723a.771.771 0 0 0-.445.13.58.58 0 0 0-.247.338l-.79 3.455a.499.499 0 0 0 .154.477.73.73 0 0 0 .537.207h11.651a.73.73 0 0 0 .538-.207.498.498 0 0 0 .153-.477Zm-2.48-5.507a.383.383 0 0 0-.153-.306.569.569 0 0 0-.373-.126h-7.02a.569.569 0 0 0-.374.126.383.383 0 0 0-.153.306c0 .12.05.222.153.306a.569.569 0 0 0 .373.126h7.021c.147 0 .27-.042.373-.126a.383.383 0 0 0 .154-.306Zm4.39 6.524v5.426h-1.405v1.152c0 .318-.137.59-.412.814a1.515 1.515 0 0 1-.992.338c-.388 0-.719-.113-.993-.338-.274-.225-.412-.496-.412-.814v-1.152H4.545v1.152c0 .318-.137.59-.411.814a1.515 1.515 0 0 1-.993.338c-.388 0-.719-.113-.993-.338-.274-.225-.412-.496-.412-.814v-1.152H.332V8.458c0-.672.092-1.34.275-2.007l1.13-4.085c.065-.468.422-.879 1.07-1.233.646-.354 1.487-.62 2.522-.8 1.035-.18 2.178-.27 3.429-.27 1.25 0 2.393.09 3.428.27 1.035.18 1.876.446 2.523.8.648.354 1.004.765 1.07 1.233l1.152 4.085c.168.612.252 1.281.252 2.007Z" fill="#1D2E5B"/></g><defs><clipPath id="a"><path fill="#fff" transform="translate(.33 .063)" d="M0 0h16.858v16.125H0z"/></clipPath></defs></svg>