<svg width="18" height="17" fill="none" xmlns="http://www.w3.org/2000/svg"><path d="M12.27 4.094c.776 0 1.405-.602 1.405-1.344 0-.742-.629-1.344-1.404-1.344-.776 0-1.405.602-1.405 1.344 0 .742.629 1.344 1.405 1.344ZM11.412 7.432a1.4 1.4 0 0 0 .662.507c.27.1.565.117.846.05l2.33-.556-.34-1.303-2.329.556-.969-1.388a1.416 1.416 0 0 0-.893-.574l-2.702-.517a1.461 1.461 0 0 0-.892.11c-.277.13-.502.343-.64.606L5.322 7.151l1.257.602 1.164-2.229 1.382.265-3.573 5.695H2.437v1.344H5.55c.49 0 .952-.25 1.205-.652l1.347-2.148 3.631.695 1.275 3.661 1.332-.425-1.275-3.66a1.345 1.345 0 0 0-.403-.583 1.435 1.435 0 0 0-.654-.311l-2.135-.408 1.245-1.985.293.42Z" fill="#1D2E5B"/></svg>