<svg width="18" height="17" fill="none" xmlns="http://www.w3.org/2000/svg"><path opacity=".15" d="M13.105 14.172c-.6 0-1.185-.17-1.683-.488a2.93 2.93 0 0 1-1.116-1.3 2.781 2.781 0 0 1-.172-1.675 2.86 2.86 0 0 1 .829-1.483 3.074 3.074 0 0 1 1.55-.793 3.157 3.157 0 0 1 1.75.165c.554.219 1.027.59 1.36 1.067a2.81 2.81 0 0 1 .51 1.61c0 .768-.32 1.504-.887 2.047a3.104 3.104 0 0 1-2.141.85Zm0-4.787c-.391 0-.773.11-1.098.318a1.911 1.911 0 0 0-.727.848c-.15.346-.19.726-.113 1.092.076.367.264.703.54.968.277.264.63.444 1.012.517.383.073.78.035 1.142-.108.36-.143.67-.385.886-.696.217-.31.333-.676.333-1.05 0-.5-.209-.98-.579-1.335a2.024 2.024 0 0 0-1.396-.554ZM4.412 14.172c-.599 0-1.184-.17-1.683-.488a2.93 2.93 0 0 1-1.115-1.3 2.78 2.78 0 0 1-.173-1.675 2.86 2.86 0 0 1 .83-1.483 3.074 3.074 0 0 1 1.55-.793 3.157 3.157 0 0 1 1.75.165c.554.219 1.027.59 1.36 1.067.333.476.51 1.036.51 1.61 0 .768-.32 1.504-.888 2.047a3.104 3.104 0 0 1-2.14.85Zm0-4.787c-.39 0-.772.11-1.097.318a1.91 1.91 0 0 0-.728.848c-.15.346-.188.726-.112 1.092.076.367.264.703.54.968.277.264.629.444 1.012.517.383.073.78.035 1.141-.108.361-.143.67-.385.887-.696.217-.31.333-.676.333-1.05 0-.5-.21-.98-.58-1.335a2.024 2.024 0 0 0-1.396-.554ZM10.866 4.094a1.092 1.092 0 0 0 .747-.296.966.966 0 0 0 .306-.716.957.957 0 0 0-.303-.712 1.08 1.08 0 0 0-.744-.292 1.095 1.095 0 0 0-.746.293 1.006 1.006 0 0 0-.23.326.97.97 0 0 0 .226 1.1c.097.093.213.168.34.219.129.05.265.077.404.078Z" fill="#1D2E5B"/><path opacity=".15" d="M12.431 6.11h-1.44a.136.136 0 0 1-.068-.018.128.128 0 0 1-.048-.048L9.83 4.212a.99.99 0 0 0-.31-.344 1.065 1.065 0 0 0-.911-.137 1.03 1.03 0 0 0-.405.237l-2.3 2.217a1.003 1.003 0 0 0-.306.705c0 .548.415.744.609.854.938.517 1.599.895 1.961 1.105.02.012.036.027.047.046.01.019.017.04.017.062v2.177c0 .27.218.503.501.517a.548.548 0 0 0 .389-.138.505.505 0 0 0 .163-.365V8.44c0-.08-.02-.159-.058-.23a.511.511 0 0 0-.16-.18l-1.22-.838a.128.128 0 0 1-.054-.09.121.121 0 0 1 .036-.099l1.383-1.41a.132.132 0 0 1 .112-.04c.02.003.04.01.057.021a.128.128 0 0 1 .042.044l.718 1.24a.516.516 0 0 0 .194.19c.081.045.173.07.267.07h1.844a.547.547 0 0 0 .382-.157.502.502 0 0 0 .145-.372c-.014-.271-.258-.48-.542-.48Z" fill="#1D2E5B"/></svg>