<svg xmlns="http://www.w3.org/2000/svg">
    <symbol viewBox="0 0 21 21" id="icon-location">
    <g>
    <path d="M10.5 0a7.88 7.88 0 0 0-7.88 7.88c0 5.05 3.8 7.26 4.65 8.27C9.29 18.58 9.4 21 10.5 21s1.21-2.42 3.23-4.85c.84-1 4.64-3.22 4.64-8.27A7.88 7.88 0 0 0 10.5 0Zm0 13.13a5.25 5.25 0 1 1 0-10.5 5.25 5.25 0 0 1 0 10.5Zm0-7.88a2.63 2.63 0 1 0 0 5.25 2.63 2.63 0 0 0 0-5.25Z" fill="#FFD74B"/>
    <ellipse cx="10.5" cy="7.88" rx=".88" ry=".87" fill="#161C35"/>
    </g>
    </symbol>

    <symbol viewBox="0 0 12 12" id="icon-user">
      <path d="M3.4 3c0 1.5 1.2 2.7 2.6 2.7 1.4 0 2.6-1.2 2.6-2.8C8.6 1.4 7.4.2 6 .2a2.7 2.7 0 0 0-2.6 2.7Zm7.3 8.8h.6v-.6c0-2.4-2-4.2-4.1-4.2H4.8c-2.2 0-4 2-4 4.3v.6h9.9Z" />
    </symbol>

    <symbol viewBox="0 0 19 17" id="icon-telephone">
      <path fill-rule="evenodd" clip-rule="evenodd" d="M9.5 1c-2.8 0-5.6.6-6.6 1.5-.9.8-1.1 2.2-1.2 3v.2c0 .3.2.6.6.6L4.9 6c.4 0 .7-.3.7-.6V4.2c0-.3.3-.6.7-.6h6.4c.4 0 .7.3.7.6v1.3c0 .3.3.6.7.6l2.6.2c.4 0 .6-.3.6-.6v-.2c0-.8-.3-2.2-1.2-3-1-1-3.8-1.4-6.6-1.4Zm0 8.1c-.7 0-1.3.6-1.3 1.3 0 .6.6 1.2 1.3 1.2.7 0 1.3-.6 1.3-1.2 0-.7-.6-1.3-1.3-1.3Zm-1-2.8v-.7c0-.5-.3-.8-.8-.8s-.8.3-.8.8v.7l-4.4 4.5c-.3.3-.5.7-.5 1v1.3c0 .7.6 1.3 1.3 1.3h.3v.7c0 .5.4.8.8.8.5 0 .8-.3.8-.8v-.7h8.6v.7c0 .5.3.8.8.8.4 0 .8-.3.8-.8v-.7h.3c.7 0 1.3-.6 1.3-1.3V12c0-.4-.2-.8-.5-1.1l-4.4-4.5v-.7c0-.5-.3-.8-.8-.8s-.8.3-.8.8v.7h-2Zm1 1.6c1.4 0 2.6 1 2.6 2.5 0 1.3-1.2 2.4-2.6 2.4a2.5 2.5 0 0 1-2.6-2.4C6.9 9 8 7.9 9.5 7.9Z" />
    </symbol>

    <symbol viewBox="0 0 19 17" id="icon-mail">
      <path d="m2 3.3 6.8 4.3.8.2.8-.2 6.7-4.3c.5-.3.9-1.3.1-1.3H2c-.8 0-.4 1 0 1.3Zm15.4 2.3-7 4.3c-.3.2-.5.2-.8.2-.3 0-.5 0-.8-.2l-7-4.3c-.3-.2-.3 0-.3.3v7.6c0 .5.5 1 .9 1h14.4c.4 0 .9-.5.9-1V6c0-.2 0-.5-.3-.3Z" />
    </symbol>

    

    <symbol viewBox="0 0 21 24" id="icon-run">
      <path d="M15 5.8c1 0 1.7-.9 1.7-2 0-1-.8-1.9-1.7-1.9-1 0-1.7.9-1.7 2 0 1 .7 1.9 1.7 1.9ZM14 10.5c.1.4.4.6.7.8h1l3-.8-.5-1.8-2.8.8-1.2-2c-.3-.4-.7-.7-1.1-.8l-3.3-.8c-.4 0-.8 0-1.1.2-.4.2-.6.5-.8.8l-1.4 3.2L8 11l1.4-3.2 1.7.4-4.4 8.1H3v2h3.8c.6 0 1.2-.4 1.5-1l1.7-3 4.4 1 1.6 5.2 1.6-.6-1.5-5.3a2 2 0 0 0-.5-.8l-.8-.5-2.7-.5 1.6-2.9.3.6Z"/>
    </symbol>

    <symbol viewBox="0 0 18 18" id="icon-instagram">
    <g>
    <path d="M13 1.8A3.2 3.2 0 0 1 16.2 5v8a3.2 3.2 0 0 1-3.2 3.2H5A3.2 3.2 0 0 1 1.8 13V5A3.2 3.2 0 0 1 5 1.8h8Zm0-1H5A4.3 4.3 0 0 0 .7 5v8A4.3 4.3 0 0 0 5 17.3h8a4.3 4.3 0 0 0 4.3-4.3V5A4.3 4.3 0 0 0 13 .7Z"/>
      <path d="M9 5.8a3.2 3.2 0 1 1 0 6.4 3.2 3.2 0 0 1 0-6.4Zm0-1a4.3 4.3 0 1 0 0 8.5 4.3 4.3 0 0 0 0-8.6ZM13.4 5.6a1 1 0 1 0 0-2 1 1 0 0 0 0 2Z"/>
    </g>
    </symbol>

    <symbol viewBox="0 0 23 12" id="icon-vkontakte">
      <path d="M17.8 11.8a3 3 0 0 1-1.6-.4L15 10.2l-1-.9c-.3 0-.4.7-.4 1.2 0 .3-.1.7-.4 1-.2.1-.5.3-.9.3h-1.4c-2 0-4-.9-5.5-2.3A30 30 0 0 1 0 1.4L.2.9c.3-.3.7-.4 1-.4h3.2l.7.3.4.5 1.1 2c1 1.5 1.4 1.9 1.6 2 .2-.8.2-1.5.1-2.2l-.1-1a1 1 0 0 0-.6-.2L7 1.4c-.2-.5.4-1 .8-1.1.7-.2 1.5-.3 2.3-.3h.5c.6 0 1.1 0 1.6.2 1.3.2 1.2 1.3 1.2 2.4v2.6c.6-.5 1.2-1.2 1.6-1.9.4-.6.8-1.3 1-2a1.2 1.2 0 0 1 1.3-.8h3.4c.8 0 1.2.2 1.4.7.2.4.1 1.2-1.8 3.4l-.7.9c-.4.3-.7.7-1 1.2l1 .8c.9.7 1.6 1.4 2.3 2.3a1.2 1.2 0 0 1 .1 1.3 1.7 1.7 0 0 1-1.4.7h-2.9Zm-4-3.6c.7 0 1.3.6 1.9 1.2l1.1 1c.3.2.7.3 1 .3h2.9l.4-.1v-.2a9.9 9.9 0 0 0-2-2c-1-.7-1.4-1.1-1.4-1.7 0-.6.3-1 1.2-2l.7-.8a8 8 0 0 0 1.5-2.3H17.2c-.3.8-.7 1.6-1.2 2.3-1.4 2.2-2 2.4-2.5 2.4H13c-.8-.5-.8-1.4-.7-2.1V2.6c0-1.3 0-1.3-.3-1.4H8.8l.2.2c.3.5.5 1 .4 1.6.1 1.3 0 2.9-.7 3.3a1 1 0 0 1-.5 0C7.6 6.4 7 5.8 5.7 4L4.5 1.8v-.1H1.2c.4.8 2.5 4.9 4.8 7 1.3 1.2 3 2 4.8 2h1.4l.2-.1c0-.3 0-2 1.1-2.3l.3-.1Z" />
    </symbol>

    <symbol viewBox="0 0 46 45" id="icon-level99">
      <path d="M23.55 1.52a21 21 0 1 1-3.92.19" stroke-width="3" stroke-linecap="round" />
    </symbol>

    <symbol viewBox="0 0 46 45" id="icon-level80">
      <path d="M23.51 1.5A21 21 0 1 1 3.16 15.4" stroke-width="3" stroke-linecap="round"/>
    </symbol>

    <symbol viewBox="0 0 46 45" id="icon-level25">
      <path d="M22.58 1.5a21 21 0 0 1 21 21" stroke-width="3" stroke-linecap="round"/>
    </symbol>

    <symbol viewBox="0 0 46 47" id="icon-level50">
      <path d="M21.93 1.6a21.5 21.5 0 0 1 0 43" stroke-width="3" stroke-linecap="round"/>
    </symbol>

    <symbol viewBox="0 0 100 100" id="icon-subtract80">
      <path fill-rule="evenodd" clip-rule="evenodd" d="M5.77 26.67A50 50 0 1 0 50 0v3A47 47 0 1 1 9.2 26.67H5.76Z" fill="#FF8D30"/>
    </symbol>
  </svg>
