<svg viewBox="0 0 19 19" xmlns="http://www.w3.org/2000/svg">
  <path d="M9.8 8.2c0 .2.1.4.3.4.4 0 .7.3.7.7 0 .1.2.3.4.3l.3-.3c0-.8-.6-1.4-1.4-1.4-.2 0-.3.1-.3.3Zm5.5 1.4c.2 0 .4-.2.4-.3 0-3-2.5-5.5-5.6-5.5-.2 0-.3.1-.3.3 0 .2.1.3.3.3 2.7 0 4.9 2.2 4.9 4.9 0 .1.1.3.3.3Z"/>
  <path d="m12.9 9.3.3.3c.2 0 .4-.2.4-.3 0-2-1.6-3.5-3.5-3.5-.2 0-.3.2-.3.4s.1.3.3.3c1.6 0 2.8 1.2 2.8 2.8Zm-2.8-7.6c-.2 0-.3.2-.3.3 0 .2.1.4.3.4 3.9 0 7 3 7 6.9 0 .1.1.3.3.3.2 0 .4-.2.4-.3 0-4.2-3.5-7.6-7.7-7.6Zm3.4 11.1-.5.3c-.8.4-1.3 1.5-2.3.6l-2.4-2.4-2.1-2c-1-1.4.1-1.7.5-2.4l.3-.5a2.6 2.6 0 0 0-.5-3c-.5-.6-1.1-.8-1.8-.8s-1.4.2-2 .7v.2c-1 1-1.1 2.5-.4 4.4.7 1.9 2 3.9 3.9 5.7 2.8 2.7 5.9 4.3 8 4.3a3 3 0 0 0 2.2-.8l.2-.1a2.6 2.6 0 0 0 0-3.7c-.8-.9-2.1-1-3.1-.5Z"/>
</svg>
