<svg width="13" height="11" viewBox="0 0 13 11" fill="none" xmlns="http://www.w3.org/2000/svg">
<path d="M3.25532 0.47406C4.94809 0.47406 6.31915 1.82156 6.31915 3.48385C6.31915 1.82156 7.69022 0.47406 9.38298 0.47406C11.0757 0.47406 12.4468 1.82156 12.4468 3.48385C12.4468 5.98919 9.96971 6.87293 6.61941 10.8609C6.58252 10.9047 6.53654 10.9399 6.48468 10.9641C6.43283 10.9882 6.37633 11.0007 6.31915 11.0007C6.26197 11.0007 6.20548 10.9882 6.15362 10.9641C6.10176 10.9399 6.05578 10.9047 6.0189 10.8609C2.6686 6.87293 0.19149 5.98919 0.19149 3.48385C0.19149 1.82156 1.56255 0.47406 3.25532 0.47406Z" fill="#F02323"/>
</svg>
