<svg width="23" height="22" viewBox="0 0 23 22" fill="none" xmlns="http://www.w3.org/2000/svg">
<path opacity="0.15" d="M17.4297 19.25C16.6123 19.25 15.8133 19.0182 15.1336 18.5838C14.454 18.1494 13.9243 17.532 13.6115 16.8097C13.2987 16.0873 13.2168 15.2925 13.3763 14.5257C13.5358 13.7588 13.9294 13.0544 14.5073 12.5016C15.0853 11.9487 15.8217 11.5722 16.6234 11.4197C17.4251 11.2672 18.2561 11.3455 19.0112 11.6447C19.7664 11.9439 20.4119 12.4506 20.866 13.1006C21.3201 13.7507 21.5625 14.515 21.5625 15.2969C21.5613 16.345 21.1255 17.3498 20.3507 18.0909C19.5759 18.832 18.5254 19.2489 17.4297 19.25ZM17.4297 12.7188C16.8966 12.7188 16.3755 12.87 15.9323 13.1532C15.489 13.4365 15.1435 13.8392 14.9395 14.3103C14.7355 14.7814 14.6822 15.2997 14.7862 15.7998C14.8902 16.3 15.1469 16.7593 15.5238 17.1199C15.9008 17.4804 16.381 17.726 16.9039 17.8255C17.4267 17.9249 17.9686 17.8739 18.4611 17.6788C18.9536 17.4836 19.3746 17.1532 19.6708 16.7292C19.9669 16.3052 20.125 15.8068 20.125 15.2969C20.1242 14.6134 19.8399 13.9581 19.3346 13.4747C18.8294 12.9914 18.1443 12.7195 17.4297 12.7188Z" fill="#1D2E5B"/>
<path opacity="0.15" d="M5.57031 19.25C4.75292 19.25 3.95388 19.0182 3.27425 18.5838C2.59461 18.1494 2.0649 17.532 1.75209 16.8097C1.43929 16.0873 1.35745 15.2925 1.51691 14.5257C1.67638 13.7588 2.06999 13.0544 2.64797 12.5016C3.22596 11.9487 3.96236 11.5722 4.76404 11.4197C5.56573 11.2672 6.3967 11.3455 7.15187 11.6447C7.90705 11.9439 8.5525 12.4506 9.00662 13.1006C9.46074 13.7507 9.70313 14.515 9.70313 15.2969C9.70194 16.345 9.26614 17.3498 8.49134 18.0909C7.71655 18.832 6.66604 19.2489 5.57031 19.25ZM5.57031 12.7188C5.03723 12.7188 4.51612 12.87 4.07288 13.1532C3.62964 13.4365 3.28417 13.8392 3.08017 14.3103C2.87617 14.7814 2.82279 15.2997 2.92679 15.7998C3.03079 16.3 3.28749 16.7593 3.66444 17.1199C4.04139 17.4804 4.52165 17.726 5.04448 17.8255C5.56732 17.9249 6.10926 17.8739 6.60177 17.6788C7.09427 17.4836 7.51522 17.1532 7.81139 16.7292C8.10755 16.3052 8.26563 15.8068 8.26563 15.2969C8.26479 14.6134 7.98056 13.9581 7.47527 13.4747C6.96998 12.9914 6.2849 12.7195 5.57031 12.7188Z" fill="#1D2E5B"/>
<path opacity="0.15" d="M14.375 5.49998C14.5644 5.50061 14.752 5.46533 14.927 5.39618C15.102 5.32704 15.2609 5.22539 15.3946 5.09713C15.5282 4.96887 15.634 4.81654 15.7057 4.64893C15.7775 4.48133 15.8138 4.30179 15.8125 4.12069C15.8146 3.94049 15.7791 3.7617 15.7081 3.59477C15.6372 3.42785 15.5321 3.27614 15.3991 3.14851C15.2661 3.02088 15.1078 2.9199 14.9335 2.85148C14.7592 2.78305 14.5724 2.74854 14.384 2.74998C14.1952 2.74942 14.0082 2.78442 13.8336 2.853C13.6589 2.92158 13.5001 3.02239 13.3662 3.14967C13.2323 3.27695 13.126 3.42822 13.0532 3.59482C12.9804 3.76143 12.9426 3.94012 12.942 4.12069C12.9414 4.30125 12.978 4.48016 13.0497 4.6472C13.1214 4.81424 13.2268 4.96614 13.3599 5.09422C13.4929 5.2223 13.6511 5.32405 13.8253 5.39367C13.9994 5.46329 14.1863 5.49942 14.375 5.49998Z" fill="#1D2E5B"/>
<path opacity="0.15" d="M16.511 8.25007H14.5453C14.513 8.25008 14.4814 8.24178 14.4536 8.22606C14.4259 8.21033 14.4031 8.18776 14.3876 8.1607L12.9618 5.6612C12.8613 5.47545 12.7165 5.31494 12.5392 5.19266C12.3618 5.07037 12.1568 4.98976 11.9408 4.95733C11.7248 4.92491 11.5039 4.94158 11.2959 5.00601C11.0879 5.07044 10.8986 5.18082 10.7435 5.3282L7.60527 8.3532C7.34163 8.61059 7.19197 8.95537 7.1875 9.3157C7.1875 10.0634 7.75352 10.3298 8.01855 10.4801C9.29883 11.1857 10.2004 11.7018 10.695 11.9884C10.7213 12.0037 10.743 12.0252 10.7581 12.0508C10.7732 12.0765 10.7812 12.1054 10.7813 12.1349V15.1049C10.7813 15.4748 11.0786 15.7924 11.4654 15.8109C11.5625 15.8153 11.6596 15.8009 11.7507 15.7685C11.8418 15.736 11.9251 15.6863 11.9955 15.6222C12.0659 15.5581 12.122 15.4809 12.1604 15.3955C12.1988 15.3101 12.2186 15.2181 12.2188 15.1251V11.4298C12.2188 11.3206 12.1917 11.213 12.1397 11.1159C12.0877 11.0188 12.0122 10.9349 11.9196 10.8712L10.2575 9.72777C10.2366 9.71349 10.2192 9.6951 10.2064 9.67384C10.1935 9.65259 10.1856 9.62895 10.1832 9.60453C10.1807 9.5801 10.1837 9.55545 10.192 9.53224C10.2004 9.50903 10.2138 9.48779 10.2314 9.46995L12.1181 7.54538C12.1375 7.52558 12.1614 7.51044 12.1881 7.50119C12.2147 7.49193 12.2432 7.48884 12.2714 7.49215C12.2995 7.49546 12.3264 7.50508 12.3499 7.52023C12.3734 7.53538 12.3928 7.55563 12.4065 7.57933L13.3867 9.27144C13.449 9.3787 13.5402 9.46806 13.6508 9.53025C13.7614 9.59243 13.8873 9.62517 14.0156 9.62507H16.5313C16.6286 9.62518 16.725 9.60636 16.8145 9.56976C16.9041 9.53316 16.9849 9.47954 17.0521 9.41215C17.1193 9.34477 17.1715 9.26502 17.2055 9.17775C17.2396 9.09048 17.2547 8.99751 17.25 8.90448C17.2311 8.53452 16.8978 8.25007 16.511 8.25007Z" fill="#1D2E5B"/>
</svg>
